<?xml version="1.0" encoding="utf-8" standalone="no"?>
<!DOCTYPE svg PUBLIC "-//W3C//DTD SVG 1.1//EN"
  "http://www.w3.org/Graphics/SVG/1.1/DTD/svg11.dtd">
<svg xmlns:xlink="http://www.w3.org/1999/xlink" width="504pt" height="360pt" viewBox="0 0 504 360" xmlns="http://www.w3.org/2000/svg" version="1.1">
 <metadata>
  <rdf:RDF xmlns:dc="http://purl.org/dc/elements/1.1/" xmlns:cc="http://creativecommons.org/ns#" xmlns:rdf="http://www.w3.org/1999/02/22-rdf-syntax-ns#">
   <cc:Work>
    <dc:type rdf:resource="http://purl.org/dc/dcmitype/StillImage"/>
    <dc:date>2026-05-15T20:16:34.244569</dc:date>
    <dc:format>image/svg+xml</dc:format>
    <dc:creator>
     <cc:Agent>
      <dc:title>Matplotlib v3.10.7, https://matplotlib.org/</dc:title>
     </cc:Agent>
    </dc:creator>
   </cc:Work>
  </rdf:RDF>
 </metadata>
 <defs>
  <style type="text/css">*{stroke-linejoin: round; stroke-linecap: butt}</style>
 </defs>
 <g id="figure_1">
  <g id="patch_1">
   <path d="M 0 360 
L 504 360 
L 504 0 
L 0 0 
z
" style="fill: #ffffff"/>
  </g>
  <g id="axes_1">
   <g id="patch_2">
    <path d="M 47.72 318.04 
L 493.2 318.04 
L 493.2 26.88 
L 47.72 26.88 
z
" style="fill: #ffffff"/>
   </g>
   <g id="matplotlib.axis_1">
    <g id="xtick_1">
     <g id="line2d_1">
      <defs>
       <path id="mf2e4d90016" d="M 0 0 
L 0 3.5 
" style="stroke: #000000; stroke-width: 0.8"/>
      </defs>
      <g>
       <use xlink:href="#mf2e4d90016" x="67.969091" y="318.04" style="stroke: #000000; stroke-width: 0.8"/>
      </g>
     </g>
     <g id="text_1">
      <!-- 0.0 -->
      <g transform="translate(60.017528 332.638438) scale(0.1 -0.1)">
       <defs>
        <path id="DejaVuSans-30" d="M 2034 4250 
Q 1547 4250 1301 3770 
Q 1056 3291 1056 2328 
Q 1056 1369 1301 889 
Q 1547 409 2034 409 
Q 2525 409 2770 889 
Q 3016 1369 3016 2328 
Q 3016 3291 2770 3770 
Q 2525 4250 2034 4250 
z
M 2034 4750 
Q 2819 4750 3233 4129 
Q 3647 3509 3647 2328 
Q 3647 1150 3233 529 
Q 2819 -91 2034 -91 
Q 1250 -91 836 529 
Q 422 1150 422 2328 
Q 422 3509 836 4129 
Q 1250 4750 2034 4750 
z
" transform="scale(0.015625)"/>
        <path id="DejaVuSans-2e" d="M 684 794 
L 1344 794 
L 1344 0 
L 684 0 
L 684 794 
z
" transform="scale(0.015625)"/>
       </defs>
       <use xlink:href="#DejaVuSans-30"/>
       <use xlink:href="#DejaVuSans-2e" transform="translate(63.623047 0)"/>
       <use xlink:href="#DejaVuSans-30" transform="translate(95.410156 0)"/>
      </g>
     </g>
    </g>
    <g id="xtick_2">
     <g id="line2d_2">
      <g>
       <use xlink:href="#mf2e4d90016" x="148.965455" y="318.04" style="stroke: #000000; stroke-width: 0.8"/>
      </g>
     </g>
     <g id="text_2">
      <!-- 0.2 -->
      <g transform="translate(141.013892 332.638438) scale(0.1 -0.1)">
       <defs>
        <path id="DejaVuSans-32" d="M 1228 531 
L 3431 531 
L 3431 0 
L 469 0 
L 469 531 
Q 828 903 1448 1529 
Q 2069 2156 2228 2338 
Q 2531 2678 2651 2914 
Q 2772 3150 2772 3378 
Q 2772 3750 2511 3984 
Q 2250 4219 1831 4219 
Q 1534 4219 1204 4116 
Q 875 4013 500 3803 
L 500 4441 
Q 881 4594 1212 4672 
Q 1544 4750 1819 4750 
Q 2544 4750 2975 4387 
Q 3406 4025 3406 3419 
Q 3406 3131 3298 2873 
Q 3191 2616 2906 2266 
Q 2828 2175 2409 1742 
Q 1991 1309 1228 531 
z
" transform="scale(0.015625)"/>
       </defs>
       <use xlink:href="#DejaVuSans-30"/>
       <use xlink:href="#DejaVuSans-2e" transform="translate(63.623047 0)"/>
       <use xlink:href="#DejaVuSans-32" transform="translate(95.410156 0)"/>
      </g>
     </g>
    </g>
    <g id="xtick_3">
     <g id="line2d_3">
      <g>
       <use xlink:href="#mf2e4d90016" x="229.961818" y="318.04" style="stroke: #000000; stroke-width: 0.8"/>
      </g>
     </g>
     <g id="text_3">
      <!-- 0.4 -->
      <g transform="translate(222.010256 332.638438) scale(0.1 -0.1)">
       <defs>
        <path id="DejaVuSans-34" d="M 2419 4116 
L 825 1625 
L 2419 1625 
L 2419 4116 
z
M 2253 4666 
L 3047 4666 
L 3047 1625 
L 3713 1625 
L 3713 1100 
L 3047 1100 
L 3047 0 
L 2419 0 
L 2419 1100 
L 313 1100 
L 313 1709 
L 2253 4666 
z
" transform="scale(0.015625)"/>
       </defs>
       <use xlink:href="#DejaVuSans-30"/>
       <use xlink:href="#DejaVuSans-2e" transform="translate(63.623047 0)"/>
       <use xlink:href="#DejaVuSans-34" transform="translate(95.410156 0)"/>
      </g>
     </g>
    </g>
    <g id="xtick_4">
     <g id="line2d_4">
      <g>
       <use xlink:href="#mf2e4d90016" x="310.958182" y="318.04" style="stroke: #000000; stroke-width: 0.8"/>
      </g>
     </g>
     <g id="text_4">
      <!-- 0.6 -->
      <g transform="translate(303.006619 332.638438) scale(0.1 -0.1)">
       <defs>
        <path id="DejaVuSans-36" d="M 2113 2584 
Q 1688 2584 1439 2293 
Q 1191 2003 1191 1497 
Q 1191 994 1439 701 
Q 1688 409 2113 409 
Q 2538 409 2786 701 
Q 3034 994 3034 1497 
Q 3034 2003 2786 2293 
Q 2538 2584 2113 2584 
z
M 3366 4563 
L 3366 3988 
Q 3128 4100 2886 4159 
Q 2644 4219 2406 4219 
Q 1781 4219 1451 3797 
Q 1122 3375 1075 2522 
Q 1259 2794 1537 2939 
Q 1816 3084 2150 3084 
Q 2853 3084 3261 2657 
Q 3669 2231 3669 1497 
Q 3669 778 3244 343 
Q 2819 -91 2113 -91 
Q 1303 -91 875 529 
Q 447 1150 447 2328 
Q 447 3434 972 4092 
Q 1497 4750 2381 4750 
Q 2619 4750 2861 4703 
Q 3103 4656 3366 4563 
z
" transform="scale(0.015625)"/>
       </defs>
       <use xlink:href="#DejaVuSans-30"/>
       <use xlink:href="#DejaVuSans-2e" transform="translate(63.623047 0)"/>
       <use xlink:href="#DejaVuSans-36" transform="translate(95.410156 0)"/>
      </g>
     </g>
    </g>
    <g id="xtick_5">
     <g id="line2d_5">
      <g>
       <use xlink:href="#mf2e4d90016" x="391.954545" y="318.04" style="stroke: #000000; stroke-width: 0.8"/>
      </g>
     </g>
     <g id="text_5">
      <!-- 0.8 -->
      <g transform="translate(384.002983 332.638438) scale(0.1 -0.1)">
       <defs>
        <path id="DejaVuSans-38" d="M 2034 2216 
Q 1584 2216 1326 1975 
Q 1069 1734 1069 1313 
Q 1069 891 1326 650 
Q 1584 409 2034 409 
Q 2484 409 2743 651 
Q 3003 894 3003 1313 
Q 3003 1734 2745 1975 
Q 2488 2216 2034 2216 
z
M 1403 2484 
Q 997 2584 770 2862 
Q 544 3141 544 3541 
Q 544 4100 942 4425 
Q 1341 4750 2034 4750 
Q 2731 4750 3128 4425 
Q 3525 4100 3525 3541 
Q 3525 3141 3298 2862 
Q 3072 2584 2669 2484 
Q 3125 2378 3379 2068 
Q 3634 1759 3634 1313 
Q 3634 634 3220 271 
Q 2806 -91 2034 -91 
Q 1263 -91 848 271 
Q 434 634 434 1313 
Q 434 1759 690 2068 
Q 947 2378 1403 2484 
z
M 1172 3481 
Q 1172 3119 1398 2916 
Q 1625 2713 2034 2713 
Q 2441 2713 2670 2916 
Q 2900 3119 2900 3481 
Q 2900 3844 2670 4047 
Q 2441 4250 2034 4250 
Q 1625 4250 1398 4047 
Q 1172 3844 1172 3481 
z
" transform="scale(0.015625)"/>
       </defs>
       <use xlink:href="#DejaVuSans-30"/>
       <use xlink:href="#DejaVuSans-2e" transform="translate(63.623047 0)"/>
       <use xlink:href="#DejaVuSans-38" transform="translate(95.410156 0)"/>
      </g>
     </g>
    </g>
    <g id="xtick_6">
     <g id="line2d_6">
      <g>
       <use xlink:href="#mf2e4d90016" x="472.950909" y="318.04" style="stroke: #000000; stroke-width: 0.8"/>
      </g>
     </g>
     <g id="text_6">
      <!-- 1.0 -->
      <g transform="translate(464.999347 332.638438) scale(0.1 -0.1)">
       <defs>
        <path id="DejaVuSans-31" d="M 794 531 
L 1825 531 
L 1825 4091 
L 703 3866 
L 703 4441 
L 1819 4666 
L 2450 4666 
L 2450 531 
L 3481 531 
L 3481 0 
L 794 0 
L 794 531 
z
" transform="scale(0.015625)"/>
       </defs>
       <use xlink:href="#DejaVuSans-31"/>
       <use xlink:href="#DejaVuSans-2e" transform="translate(63.623047 0)"/>
       <use xlink:href="#DejaVuSans-30" transform="translate(95.410156 0)"/>
      </g>
     </g>
    </g>
    <g id="text_7">
     <!-- False Positive Rate -->
     <g transform="translate(223.993594 346.316563) scale(0.1 -0.1)">
      <defs>
       <path id="DejaVuSans-46" d="M 628 4666 
L 3309 4666 
L 3309 4134 
L 1259 4134 
L 1259 2759 
L 3109 2759 
L 3109 2228 
L 1259 2228 
L 1259 0 
L 628 0 
L 628 4666 
z
" transform="scale(0.015625)"/>
       <path id="DejaVuSans-61" d="M 2194 1759 
Q 1497 1759 1228 1600 
Q 959 1441 959 1056 
Q 959 750 1161 570 
Q 1363 391 1709 391 
Q 2188 391 2477 730 
Q 2766 1069 2766 1631 
L 2766 1759 
L 2194 1759 
z
M 3341 1997 
L 3341 0 
L 2766 0 
L 2766 531 
Q 2569 213 2275 61 
Q 1981 -91 1556 -91 
Q 1019 -91 701 211 
Q 384 513 384 1019 
Q 384 1609 779 1909 
Q 1175 2209 1959 2209 
L 2766 2209 
L 2766 2266 
Q 2766 2663 2505 2880 
Q 2244 3097 1772 3097 
Q 1472 3097 1187 3025 
Q 903 2953 641 2809 
L 641 3341 
Q 956 3463 1253 3523 
Q 1550 3584 1831 3584 
Q 2591 3584 2966 3190 
Q 3341 2797 3341 1997 
z
" transform="scale(0.015625)"/>
       <path id="DejaVuSans-6c" d="M 603 4863 
L 1178 4863 
L 1178 0 
L 603 0 
L 603 4863 
z
" transform="scale(0.015625)"/>
       <path id="DejaVuSans-73" d="M 2834 3397 
L 2834 2853 
Q 2591 2978 2328 3040 
Q 2066 3103 1784 3103 
Q 1356 3103 1142 2972 
Q 928 2841 928 2578 
Q 928 2378 1081 2264 
Q 1234 2150 1697 2047 
L 1894 2003 
Q 2506 1872 2764 1633 
Q 3022 1394 3022 966 
Q 3022 478 2636 193 
Q 2250 -91 1575 -91 
Q 1294 -91 989 -36 
Q 684 19 347 128 
L 347 722 
Q 666 556 975 473 
Q 1284 391 1588 391 
Q 1994 391 2212 530 
Q 2431 669 2431 922 
Q 2431 1156 2273 1281 
Q 2116 1406 1581 1522 
L 1381 1569 
Q 847 1681 609 1914 
Q 372 2147 372 2553 
Q 372 3047 722 3315 
Q 1072 3584 1716 3584 
Q 2034 3584 2315 3537 
Q 2597 3491 2834 3397 
z
" transform="scale(0.015625)"/>
       <path id="DejaVuSans-65" d="M 3597 1894 
L 3597 1613 
L 953 1613 
Q 991 1019 1311 708 
Q 1631 397 2203 397 
Q 2534 397 2845 478 
Q 3156 559 3463 722 
L 3463 178 
Q 3153 47 2828 -22 
Q 2503 -91 2169 -91 
Q 1331 -91 842 396 
Q 353 884 353 1716 
Q 353 2575 817 3079 
Q 1281 3584 2069 3584 
Q 2775 3584 3186 3129 
Q 3597 2675 3597 1894 
z
M 3022 2063 
Q 3016 2534 2758 2815 
Q 2500 3097 2075 3097 
Q 1594 3097 1305 2825 
Q 1016 2553 972 2059 
L 3022 2063 
z
" transform="scale(0.015625)"/>
       <path id="DejaVuSans-20" transform="scale(0.015625)"/>
       <path id="DejaVuSans-50" d="M 1259 4147 
L 1259 2394 
L 2053 2394 
Q 2494 2394 2734 2622 
Q 2975 2850 2975 3272 
Q 2975 3691 2734 3919 
Q 2494 4147 2053 4147 
L 1259 4147 
z
M 628 4666 
L 2053 4666 
Q 2838 4666 3239 4311 
Q 3641 3956 3641 3272 
Q 3641 2581 3239 2228 
Q 2838 1875 2053 1875 
L 1259 1875 
L 1259 0 
L 628 0 
L 628 4666 
z
" transform="scale(0.015625)"/>
       <path id="DejaVuSans-6f" d="M 1959 3097 
Q 1497 3097 1228 2736 
Q 959 2375 959 1747 
Q 959 1119 1226 758 
Q 1494 397 1959 397 
Q 2419 397 2687 759 
Q 2956 1122 2956 1747 
Q 2956 2369 2687 2733 
Q 2419 3097 1959 3097 
z
M 1959 3584 
Q 2709 3584 3137 3096 
Q 3566 2609 3566 1747 
Q 3566 888 3137 398 
Q 2709 -91 1959 -91 
Q 1206 -91 779 398 
Q 353 888 353 1747 
Q 353 2609 779 3096 
Q 1206 3584 1959 3584 
z
" transform="scale(0.015625)"/>
       <path id="DejaVuSans-69" d="M 603 3500 
L 1178 3500 
L 1178 0 
L 603 0 
L 603 3500 
z
M 603 4863 
L 1178 4863 
L 1178 4134 
L 603 4134 
L 603 4863 
z
" transform="scale(0.015625)"/>
       <path id="DejaVuSans-74" d="M 1172 4494 
L 1172 3500 
L 2356 3500 
L 2356 3053 
L 1172 3053 
L 1172 1153 
Q 1172 725 1289 603 
Q 1406 481 1766 481 
L 2356 481 
L 2356 0 
L 1766 0 
Q 1100 0 847 248 
Q 594 497 594 1153 
L 594 3053 
L 172 3053 
L 172 3500 
L 594 3500 
L 594 4494 
L 1172 4494 
z
" transform="scale(0.015625)"/>
       <path id="DejaVuSans-76" d="M 191 3500 
L 800 3500 
L 1894 563 
L 2988 3500 
L 3597 3500 
L 2284 0 
L 1503 0 
L 191 3500 
z
" transform="scale(0.015625)"/>
       <path id="DejaVuSans-52" d="M 2841 2188 
Q 3044 2119 3236 1894 
Q 3428 1669 3622 1275 
L 4263 0 
L 3584 0 
L 2988 1197 
Q 2756 1666 2539 1819 
Q 2322 1972 1947 1972 
L 1259 1972 
L 1259 0 
L 628 0 
L 628 4666 
L 2053 4666 
Q 2853 4666 3247 4331 
Q 3641 3997 3641 3322 
Q 3641 2881 3436 2590 
Q 3231 2300 2841 2188 
z
M 1259 4147 
L 1259 2491 
L 2053 2491 
Q 2509 2491 2742 2702 
Q 2975 2913 2975 3322 
Q 2975 3731 2742 3939 
Q 2509 4147 2053 4147 
L 1259 4147 
z
" transform="scale(0.015625)"/>
      </defs>
      <use xlink:href="#DejaVuSans-46"/>
      <use xlink:href="#DejaVuSans-61" transform="translate(48.394531 0)"/>
      <use xlink:href="#DejaVuSans-6c" transform="translate(109.673828 0)"/>
      <use xlink:href="#DejaVuSans-73" transform="translate(137.457031 0)"/>
      <use xlink:href="#DejaVuSans-65" transform="translate(189.556641 0)"/>
      <use xlink:href="#DejaVuSans-20" transform="translate(251.080078 0)"/>
      <use xlink:href="#DejaVuSans-50" transform="translate(282.867188 0)"/>
      <use xlink:href="#DejaVuSans-6f" transform="translate(339.544922 0)"/>
      <use xlink:href="#DejaVuSans-73" transform="translate(400.726562 0)"/>
      <use xlink:href="#DejaVuSans-69" transform="translate(452.826172 0)"/>
      <use xlink:href="#DejaVuSans-74" transform="translate(480.609375 0)"/>
      <use xlink:href="#DejaVuSans-69" transform="translate(519.818359 0)"/>
      <use xlink:href="#DejaVuSans-76" transform="translate(547.601562 0)"/>
      <use xlink:href="#DejaVuSans-65" transform="translate(606.78125 0)"/>
      <use xlink:href="#DejaVuSans-20" transform="translate(668.304688 0)"/>
      <use xlink:href="#DejaVuSans-52" transform="translate(700.091797 0)"/>
      <use xlink:href="#DejaVuSans-61" transform="translate(767.324219 0)"/>
      <use xlink:href="#DejaVuSans-74" transform="translate(828.603516 0)"/>
      <use xlink:href="#DejaVuSans-65" transform="translate(867.8125 0)"/>
     </g>
    </g>
   </g>
   <g id="matplotlib.axis_2">
    <g id="ytick_1">
     <g id="line2d_7">
      <defs>
       <path id="mb9b15c9428" d="M 0 0 
L -3.5 0 
" style="stroke: #000000; stroke-width: 0.8"/>
      </defs>
      <g>
       <use xlink:href="#mb9b15c9428" x="47.72" y="304.805455" style="stroke: #000000; stroke-width: 0.8"/>
      </g>
     </g>
     <g id="text_8">
      <!-- 0.0 -->
      <g transform="translate(24.816875 308.604673) scale(0.1 -0.1)">
       <use xlink:href="#DejaVuSans-30"/>
       <use xlink:href="#DejaVuSans-2e" transform="translate(63.623047 0)"/>
       <use xlink:href="#DejaVuSans-30" transform="translate(95.410156 0)"/>
      </g>
     </g>
    </g>
    <g id="ytick_2">
     <g id="line2d_8">
      <g>
       <use xlink:href="#mb9b15c9428" x="47.72" y="251.867273" style="stroke: #000000; stroke-width: 0.8"/>
      </g>
     </g>
     <g id="text_9">
      <!-- 0.2 -->
      <g transform="translate(24.816875 255.666491) scale(0.1 -0.1)">
       <use xlink:href="#DejaVuSans-30"/>
       <use xlink:href="#DejaVuSans-2e" transform="translate(63.623047 0)"/>
       <use xlink:href="#DejaVuSans-32" transform="translate(95.410156 0)"/>
      </g>
     </g>
    </g>
    <g id="ytick_3">
     <g id="line2d_9">
      <g>
       <use xlink:href="#mb9b15c9428" x="47.72" y="198.929091" style="stroke: #000000; stroke-width: 0.8"/>
      </g>
     </g>
     <g id="text_10">
      <!-- 0.4 -->
      <g transform="translate(24.816875 202.72831) scale(0.1 -0.1)">
       <use xlink:href="#DejaVuSans-30"/>
       <use xlink:href="#DejaVuSans-2e" transform="translate(63.623047 0)"/>
       <use xlink:href="#DejaVuSans-34" transform="translate(95.410156 0)"/>
      </g>
     </g>
    </g>
    <g id="ytick_4">
     <g id="line2d_10">
      <g>
       <use xlink:href="#mb9b15c9428" x="47.72" y="145.990909" style="stroke: #000000; stroke-width: 0.8"/>
      </g>
     </g>
     <g id="text_11">
      <!-- 0.6 -->
      <g transform="translate(24.816875 149.790128) scale(0.1 -0.1)">
       <use xlink:href="#DejaVuSans-30"/>
       <use xlink:href="#DejaVuSans-2e" transform="translate(63.623047 0)"/>
       <use xlink:href="#DejaVuSans-36" transform="translate(95.410156 0)"/>
      </g>
     </g>
    </g>
    <g id="ytick_5">
     <g id="line2d_11">
      <g>
       <use xlink:href="#mb9b15c9428" x="47.72" y="93.052727" style="stroke: #000000; stroke-width: 0.8"/>
      </g>
     </g>
     <g id="text_12">
      <!-- 0.8 -->
      <g transform="translate(24.816875 96.851946) scale(0.1 -0.1)">
       <use xlink:href="#DejaVuSans-30"/>
       <use xlink:href="#DejaVuSans-2e" transform="translate(63.623047 0)"/>
       <use xlink:href="#DejaVuSans-38" transform="translate(95.410156 0)"/>
      </g>
     </g>
    </g>
    <g id="ytick_6">
     <g id="line2d_12">
      <g>
       <use xlink:href="#mb9b15c9428" x="47.72" y="40.114545" style="stroke: #000000; stroke-width: 0.8"/>
      </g>
     </g>
     <g id="text_13">
      <!-- 1.0 -->
      <g transform="translate(24.816875 43.913764) scale(0.1 -0.1)">
       <use xlink:href="#DejaVuSans-31"/>
       <use xlink:href="#DejaVuSans-2e" transform="translate(63.623047 0)"/>
       <use xlink:href="#DejaVuSans-30" transform="translate(95.410156 0)"/>
      </g>
     </g>
    </g>
    <g id="text_14">
     <!-- True Positive Rate -->
     <g transform="translate(18.737188 216.989688) rotate(-90) scale(0.1 -0.1)">
      <defs>
       <path id="DejaVuSans-54" d="M -19 4666 
L 3928 4666 
L 3928 4134 
L 2272 4134 
L 2272 0 
L 1638 0 
L 1638 4134 
L -19 4134 
L -19 4666 
z
" transform="scale(0.015625)"/>
       <path id="DejaVuSans-72" d="M 2631 2963 
Q 2534 3019 2420 3045 
Q 2306 3072 2169 3072 
Q 1681 3072 1420 2755 
Q 1159 2438 1159 1844 
L 1159 0 
L 581 0 
L 581 3500 
L 1159 3500 
L 1159 2956 
Q 1341 3275 1631 3429 
Q 1922 3584 2338 3584 
Q 2397 3584 2469 3576 
Q 2541 3569 2628 3553 
L 2631 2963 
z
" transform="scale(0.015625)"/>
       <path id="DejaVuSans-75" d="M 544 1381 
L 544 3500 
L 1119 3500 
L 1119 1403 
Q 1119 906 1312 657 
Q 1506 409 1894 409 
Q 2359 409 2629 706 
Q 2900 1003 2900 1516 
L 2900 3500 
L 3475 3500 
L 3475 0 
L 2900 0 
L 2900 538 
Q 2691 219 2414 64 
Q 2138 -91 1772 -91 
Q 1169 -91 856 284 
Q 544 659 544 1381 
z
M 1991 3584 
L 1991 3584 
z
" transform="scale(0.015625)"/>
      </defs>
      <use xlink:href="#DejaVuSans-54"/>
      <use xlink:href="#DejaVuSans-72" transform="translate(46.333984 0)"/>
      <use xlink:href="#DejaVuSans-75" transform="translate(87.447266 0)"/>
      <use xlink:href="#DejaVuSans-65" transform="translate(150.826172 0)"/>
      <use xlink:href="#DejaVuSans-20" transform="translate(212.349609 0)"/>
      <use xlink:href="#DejaVuSans-50" transform="translate(244.136719 0)"/>
      <use xlink:href="#DejaVuSans-6f" transform="translate(300.814453 0)"/>
      <use xlink:href="#DejaVuSans-73" transform="translate(361.996094 0)"/>
      <use xlink:href="#DejaVuSans-69" transform="translate(414.095703 0)"/>
      <use xlink:href="#DejaVuSans-74" transform="translate(441.878906 0)"/>
      <use xlink:href="#DejaVuSans-69" transform="translate(481.087891 0)"/>
      <use xlink:href="#DejaVuSans-76" transform="translate(508.871094 0)"/>
      <use xlink:href="#DejaVuSans-65" transform="translate(568.050781 0)"/>
      <use xlink:href="#DejaVuSans-20" transform="translate(629.574219 0)"/>
      <use xlink:href="#DejaVuSans-52" transform="translate(661.361328 0)"/>
      <use xlink:href="#DejaVuSans-61" transform="translate(728.59375 0)"/>
      <use xlink:href="#DejaVuSans-74" transform="translate(789.873047 0)"/>
      <use xlink:href="#DejaVuSans-65" transform="translate(829.082031 0)"/>
     </g>
    </g>
   </g>
   <g id="line2d_13">
    <path d="M 67.969091 304.805455 
L 68.047743 235.730415 
L 68.126396 235.730415 
L 68.205048 221.025364 
L 68.283701 221.025364 
L 68.362354 211.737964 
L 68.441006 211.737964 
L 68.519659 202.837539 
L 68.598311 202.837539 
L 68.676964 193.937113 
L 68.755616 193.937113 
L 68.834269 185.230175 
L 68.912921 185.230175 
L 68.991574 180.779963 
L 69.070226 180.779963 
L 69.148879 179.812525 
L 69.306184 179.812525 
L 69.384836 174.975338 
L 69.463489 174.975338 
L 69.542141 171.299075 
L 69.620794 171.299075 
L 69.699446 170.13815 
L 69.778099 170.13815 
L 69.856751 167.235837 
L 69.935404 167.235837 
L 70.014056 164.7205 
L 70.171361 164.7205 
L 70.250014 160.0768 
L 70.328666 160.0768 
L 70.407319 157.948437 
L 70.485972 157.948437 
L 70.564624 151.563349 
L 70.643277 151.563349 
L 70.721929 151.176374 
L 70.800582 151.176374 
L 70.879234 150.208937 
L 70.957887 150.208937 
L 71.036539 148.854524 
L 71.115192 148.854524 
L 71.193844 147.500112 
L 71.272497 147.500112 
L 71.272497 146.726162 
L 71.429802 146.726162 
L 71.508454 145.758724 
L 71.587107 145.758724 
L 71.665759 144.404312 
L 71.744412 144.404312 
L 71.823064 143.436874 
L 71.901717 143.436874 
L 71.980369 141.888974 
L 72.059022 141.888974 
L 72.137674 140.341074 
L 72.216327 140.341074 
L 72.294979 136.858299 
L 72.373632 136.858299 
L 72.452284 135.697374 
L 72.60959 135.697374 
L 72.688242 134.729936 
L 72.766895 134.729936 
L 72.845547 133.762499 
L 72.9242 133.762499 
L 73.002852 132.988549 
L 73.160157 132.988549 
L 73.23881 132.214599 
L 73.632072 132.214599 
L 73.632072 132.021111 
L 73.789377 132.021111 
L 73.789377 131.634136 
L 74.025335 131.634136 
L 74.103987 130.860186 
L 74.18264 130.860186 
L 74.261292 130.473211 
L 74.418597 130.473211 
L 74.418597 130.279724 
L 74.575902 130.279724 
L 74.575902 129.892749 
L 74.733208 129.892749 
L 74.733208 129.505774 
L 74.890513 129.505774 
L 74.890513 129.118799 
L 75.047818 129.118799 
L 75.047818 128.344848 
L 75.362428 128.344848 
L 75.44108 127.957873 
L 75.912995 127.957873 
L 75.991648 127.377411 
L 76.0703 127.377411 
L 76.148953 126.022998 
L 76.306258 126.022998 
L 76.38491 125.636023 
L 76.856826 125.636023 
L 76.856826 123.507661 
L 77.092783 123.507661 
L 77.171436 123.120686 
L 77.250088 123.120686 
L 77.328741 122.153248 
L 77.564698 122.153248 
L 77.643351 121.766273 
L 77.722003 121.766273 
L 77.722003 121.379298 
L 78.036613 121.379298 
L 78.036613 120.992323 
L 78.193918 120.992323 
L 78.193918 120.798836 
L 78.429876 120.798836 
L 78.508528 120.024886 
L 78.587181 120.024886 
L 78.665833 119.444423 
L 78.744486 119.444423 
L 78.744486 119.250936 
L 78.901791 119.250936 
L 78.980444 118.863961 
L 79.373706 118.863961 
L 79.373706 118.476986 
L 79.688316 118.476986 
L 79.766969 118.090011 
L 80.002926 118.090011 
L 80.002926 117.703036 
L 80.238884 117.703036 
L 80.238884 117.509548 
L 80.396189 117.509548 
L 80.396189 117.316061 
L 80.553494 117.316061 
L 80.632146 116.929086 
L 80.789451 116.929086 
L 80.789451 116.735598 
L 81.182714 116.735598 
L 81.261367 115.961648 
L 81.340019 115.961648 
L 81.340019 115.768161 
L 81.497324 115.768161 
L 81.497324 115.187698 
L 81.733282 115.187698 
L 81.811934 114.800723 
L 82.047892 114.800723 
L 82.047892 114.413748 
L 82.283849 114.413748 
L 82.362502 113.833285 
L 82.441154 113.833285 
L 82.519807 113.252823 
L 82.677112 113.252823 
L 82.677112 113.059335 
L 82.834417 113.059335 
L 82.913069 112.67236 
L 83.149027 112.67236 
L 83.149027 112.478873 
L 83.306332 112.478873 
L 83.384985 111.12446 
L 83.699595 111.12446 
L 83.699595 110.543998 
L 83.935552 110.543998 
L 83.935552 110.35051 
L 84.092857 110.35051 
L 84.17151 109.770048 
L 84.879382 109.770048 
L 84.879382 109.57656 
L 85.036687 109.57656 
L 85.11534 109.189585 
L 85.42995 109.189585 
L 85.42995 108.996098 
L 85.665908 108.996098 
L 85.74456 108.609123 
L 85.823213 108.609123 
L 85.901865 108.222148 
L 85.980518 108.222148 
L 86.05917 107.835173 
L 86.216475 107.835173 
L 86.216475 107.448198 
L 86.452433 107.448198 
L 86.452433 107.061223 
L 86.609738 107.061223 
L 86.68839 106.48076 
L 86.767043 106.48076 
L 86.845695 105.900298 
L 87.31761 105.900298 
L 87.31761 105.70681 
L 87.710873 105.70681 
L 87.710873 105.513323 
L 87.946831 105.513323 
L 87.946831 105.319835 
L 88.340093 105.319835 
L 88.418746 104.93286 
L 88.733356 104.93286 
L 88.733356 104.545885 
L 89.126618 104.545885 
L 89.126618 104.352398 
L 90.306406 104.352398 
L 90.385059 103.965423 
L 90.463711 103.965423 
L 90.463711 103.771935 
L 90.621016 103.771935 
L 90.699669 103.38496 
L 91.014279 103.38496 
L 91.092931 102.997985 
L 91.407541 102.997985 
L 91.486194 102.61101 
L 91.958109 102.61101 
L 91.958109 102.224035 
L 92.351372 102.224035 
L 92.430024 101.256598 
L 92.665982 101.256598 
L 92.744634 100.676135 
L 92.980592 100.676135 
L 92.980592 100.28916 
L 93.216549 100.28916 
L 93.295202 99.902185 
L 93.84577 99.902185 
L 93.924422 99.51521 
L 94.317685 99.51521 
L 94.317685 99.321722 
L 94.946905 99.321722 
L 94.946905 99.128235 
L 95.497472 99.128235 
L 95.497472 98.934747 
L 95.654777 98.934747 
L 95.654777 98.74126 
L 96.04804 98.74126 
L 96.126693 98.354285 
L 96.519955 98.354285 
L 96.519955 97.96731 
L 96.755913 97.96731 
L 96.834565 97.580335 
L 97.149175 97.580335 
L 97.149175 97.19336 
L 97.385133 97.19336 
L 97.385133 96.999872 
L 97.62109 96.999872 
L 97.62109 96.806385 
L 99.430098 96.806385 
L 99.508751 96.41941 
L 99.587403 96.41941 
L 99.587403 96.225922 
L 100.059318 96.225922 
L 100.059318 95.838947 
L 100.373929 95.838947 
L 100.373929 95.64546 
L 100.767191 95.64546 
L 100.767191 95.451972 
L 100.924496 95.451972 
L 100.924496 95.258485 
L 102.340242 95.258485 
L 102.340242 95.064997 
L 103.520029 95.064997 
L 103.520029 94.87151 
L 103.755987 94.87151 
L 103.834639 94.09756 
L 104.227902 94.09756 
L 104.227902 93.710585 
L 105.014427 93.710585 
L 105.014427 93.517097 
L 105.329037 93.517097 
L 105.40769 93.130122 
L 105.564995 93.130122 
L 105.564995 92.743147 
L 105.800952 92.743147 
L 105.800952 92.54966 
L 106.194215 92.54966 
L 106.194215 92.356172 
L 106.66613 92.356172 
L 106.66613 91.969197 
L 107.059393 91.969197 
L 107.059393 91.77571 
L 107.29535 91.77571 
L 107.29535 91.582222 
L 107.92457 91.582222 
L 107.92457 91.388735 
L 109.025706 91.388735 
L 109.025706 91.195247 
L 110.126841 91.195247 
L 110.126841 91.00176 
L 110.362798 91.00176 
L 110.362798 90.614785 
L 110.913366 90.614785 
L 110.913366 90.421297 
L 111.385281 90.421297 
L 111.385281 90.22781 
L 111.542586 90.22781 
L 111.542586 89.840835 
L 111.935849 89.840835 
L 111.935849 89.647347 
L 112.171806 89.647347 
L 112.171806 89.45386 
L 112.486416 89.45386 
L 112.486416 89.260372 
L 113.666204 89.260372 
L 113.666204 89.066885 
L 113.980814 89.066885 
L 113.980814 88.873397 
L 114.295424 88.873397 
L 114.295424 88.67991 
L 115.08195 88.67991 
L 115.08195 88.486422 
L 115.239255 88.486422 
L 115.239255 88.292935 
L 117.126915 88.292935 
L 117.205568 87.90596 
L 117.362873 87.90596 
L 117.362873 87.712472 
L 117.834788 87.712472 
L 117.834788 87.518985 
L 117.992093 87.518985 
L 118.070745 87.13201 
L 118.149398 87.13201 
L 118.22805 86.551547 
L 118.621313 86.551547 
L 118.621313 86.35806 
L 118.85727 86.35806 
L 118.85727 86.164572 
L 119.879753 86.164572 
L 119.879753 85.971085 
L 120.037058 85.971085 
L 120.037058 85.777597 
L 121.452804 85.777597 
L 121.452804 85.58411 
L 122.632591 85.58411 
L 122.632591 85.390622 
L 123.025854 85.390622 
L 123.104506 85.003647 
L 124.126989 85.003647 
L 124.126989 84.810159 
L 125.228124 84.810159 
L 125.228124 84.616672 
L 125.464082 84.616672 
L 125.464082 84.423184 
L 125.778692 84.423184 
L 125.778692 84.229697 
L 125.935997 84.229697 
L 125.935997 84.036209 
L 127.115785 84.036209 
L 127.115785 83.842722 
L 127.351742 83.842722 
L 127.430395 83.455747 
L 127.90231 83.455747 
L 127.90231 83.262259 
L 128.374225 83.262259 
L 128.452878 82.875284 
L 129.318055 82.875284 
L 129.318055 82.681797 
L 129.711318 82.681797 
L 129.789971 82.294822 
L 130.969758 82.294822 
L 130.969758 82.101334 
L 131.520326 82.101334 
L 131.520326 81.714359 
L 131.677631 81.714359 
L 131.677631 81.520872 
L 132.936071 81.520872 
L 132.936071 81.327384 
L 133.093376 81.327384 
L 133.093376 81.133897 
L 133.329334 81.133897 
L 133.329334 80.940409 
L 133.565291 80.940409 
L 133.565291 80.746922 
L 135.531604 80.746922 
L 135.531604 80.553434 
L 135.846214 80.553434 
L 135.846214 80.359947 
L 136.31813 80.359947 
L 136.31813 80.166459 
L 136.475435 80.166459 
L 136.475435 79.972972 
L 138.756358 79.972972 
L 138.756358 79.779484 
L 139.621535 79.779484 
L 139.621535 79.585997 
L 139.857493 79.585997 
L 139.936145 79.005534 
L 140.250755 79.005534 
L 140.329408 78.618559 
L 140.879976 78.618559 
L 140.879976 78.425072 
L 141.037281 78.425072 
L 141.037281 78.231584 
L 141.430543 78.231584 
L 141.430543 78.038097 
L 143.082246 78.038097 
L 143.082246 77.844609 
L 143.239551 77.844609 
L 143.239551 77.651122 
L 145.205864 77.651122 
L 145.205864 77.457634 
L 146.071042 77.457634 
L 146.071042 77.264147 
L 146.464304 77.264147 
L 146.464304 77.070659 
L 146.621609 77.070659 
L 146.621609 76.877172 
L 147.801397 76.877172 
L 147.801397 76.683684 
L 148.19466 76.683684 
L 148.273312 76.296709 
L 148.981185 76.296709 
L 149.059838 75.909734 
L 149.13849 75.909734 
L 149.13849 75.716247 
L 149.4531 75.716247 
L 149.4531 75.522759 
L 149.846363 75.522759 
L 149.925015 75.135784 
L 151.655371 75.135784 
L 151.734023 74.555322 
L 152.048633 74.555322 
L 152.048633 74.361834 
L 152.599201 74.361834 
L 152.599201 73.781372 
L 152.756506 73.781372 
L 152.756506 73.587884 
L 152.835158 73.587884 
L 152.913811 73.394397 
L 153.543031 73.394397 
L 153.621684 73.007422 
L 154.172251 73.007422 
L 154.172251 72.813934 
L 154.880124 72.813934 
L 154.880124 72.620447 
L 155.666649 72.620447 
L 155.666649 72.426959 
L 158.81275 72.426959 
L 158.81275 72.233472 
L 159.284665 72.233472 
L 159.284665 72.039984 
L 160.621758 72.039984 
L 160.621758 71.653009 
L 160.857715 71.653009 
L 160.857715 71.459522 
L 162.352113 71.459522 
L 162.352113 71.266034 
L 162.981333 71.266034 
L 162.981333 71.072547 
L 163.295943 71.072547 
L 163.295943 70.879059 
L 163.689206 70.879059 
L 163.689206 70.685572 
L 164.003816 70.685572 
L 164.003816 70.492084 
L 165.183604 70.492084 
L 165.183604 70.298596 
L 167.307222 70.298596 
L 167.307222 70.105109 
L 167.464527 70.105109 
L 167.464527 69.524646 
L 167.85779 69.524646 
L 167.85779 69.331159 
L 168.329705 69.331159 
L 168.329705 69.137671 
L 169.666797 69.137671 
L 169.74545 68.750696 
L 171.63311 68.750696 
L 171.63311 68.557209 
L 172.734246 68.557209 
L 172.734246 68.363721 
L 174.385949 68.363721 
L 174.385949 68.170234 
L 176.666872 68.170234 
L 176.666872 67.976746 
L 178.633185 67.976746 
L 178.633185 67.783259 
L 179.970277 67.783259 
L 179.970277 67.396284 
L 180.127582 67.396284 
L 180.127582 67.202796 
L 180.835455 67.202796 
L 180.835455 67.009309 
L 181.857938 67.009309 
L 181.857938 66.815821 
L 182.801768 66.815821 
L 182.801768 66.622334 
L 183.430988 66.622334 
L 183.430988 66.428846 
L 185.239996 66.428846 
L 185.239996 66.235359 
L 186.577089 66.235359 
L 186.577089 66.041871 
L 188.071487 66.041871 
L 188.071487 65.848384 
L 188.307444 65.848384 
L 188.307444 65.654896 
L 190.35241 65.654896 
L 190.35241 65.461409 
L 190.745672 65.461409 
L 190.745672 65.267921 
L 191.532198 65.267921 
L 191.532198 65.074434 
L 191.92546 65.074434 
L 191.92546 64.880946 
L 192.86929 64.880946 
L 192.86929 64.687459 
L 194.756951 64.687459 
L 194.756951 64.493971 
L 195.071561 64.493971 
L 195.150213 64.106996 
L 196.408654 64.106996 
L 196.408654 63.913509 
L 196.723264 63.913509 
L 196.801916 63.333046 
L 200.577237 63.333046 
L 200.577237 63.139559 
L 200.9705 63.139559 
L 200.9705 62.946071 
L 201.59972 62.946071 
L 201.59972 62.752584 
L 202.700855 62.752584 
L 202.700855 62.559096 
L 204.509863 62.559096 
L 204.509863 62.365609 
L 204.903126 62.365609 
L 204.903126 62.172121 
L 205.532346 62.172121 
L 205.532346 61.978634 
L 206.004261 61.978634 
L 206.004261 61.591659 
L 206.318871 61.591659 
L 206.318871 61.398171 
L 206.712134 61.398171 
L 206.712134 61.204684 
L 207.655964 61.204684 
L 207.655964 61.011196 
L 207.970574 61.011196 
L 207.970574 60.817709 
L 208.678447 60.817709 
L 208.678447 60.624221 
L 211.431285 60.624221 
L 211.431285 60.430734 
L 212.375115 60.430734 
L 212.375115 60.237246 
L 212.768378 60.237246 
L 212.768378 60.043759 
L 213.082988 60.043759 
L 213.082988 59.850271 
L 213.948165 59.850271 
L 213.948165 59.269809 
L 214.184123 59.269809 
L 214.184123 59.076321 
L 214.577386 59.076321 
L 214.577386 58.882834 
L 214.970648 58.882834 
L 214.970648 58.689346 
L 216.701004 58.689346 
L 216.701004 58.495859 
L 216.936961 58.495859 
L 216.936961 58.302371 
L 218.195401 58.302371 
L 218.195401 58.108884 
L 221.26285 58.108884 
L 221.341502 57.721909 
L 221.420155 57.721909 
L 221.420155 57.528421 
L 222.993205 57.528421 
L 222.993205 57.334934 
L 223.543773 57.334934 
L 223.543773 57.141446 
L 224.487603 57.141446 
L 224.487603 56.947959 
L 225.274128 56.947959 
L 225.274128 56.754471 
L 226.375263 56.754471 
L 226.375263 56.560984 
L 226.847178 56.560984 
L 226.847178 56.367496 
L 227.555051 56.367496 
L 227.555051 56.174009 
L 229.128101 56.174009 
L 229.128101 55.980521 
L 229.757322 55.980521 
L 229.757322 55.787033 
L 232.352855 55.787033 
L 232.352855 55.593546 
L 233.060727 55.593546 
L 233.060727 55.400058 
L 234.948388 55.400058 
L 234.948388 55.206571 
L 235.970871 55.206571 
L 235.970871 55.013083 
L 236.521438 55.013083 
L 236.521438 54.819596 
L 238.566404 54.819596 
L 238.566404 54.626108 
L 239.352929 54.626108 
L 239.352929 54.432621 
L 240.218107 54.432621 
L 240.218107 54.239133 
L 241.948462 54.239133 
L 241.948462 54.045646 
L 244.150733 54.045646 
L 244.150733 53.852158 
L 244.38669 53.852158 
L 244.38669 53.658671 
L 244.543995 53.658671 
L 244.543995 53.465183 
L 246.274351 53.465183 
L 246.274351 53.271696 
L 248.397969 53.271696 
L 248.397969 53.078208 
L 250.128324 53.078208 
L 250.128324 52.884721 
L 250.678892 52.884721 
L 250.678892 52.691233 
L 250.836197 52.691233 
L 250.836197 52.497746 
L 252.723857 52.497746 
L 252.723857 52.304258 
L 252.959815 52.304258 
L 252.959815 52.110771 
L 254.37556 52.110771 
L 254.37556 51.917283 
L 255.083433 51.917283 
L 255.083433 51.723796 
L 257.364356 51.723796 
L 257.364356 51.530308 
L 258.308186 51.530308 
L 258.308186 51.336821 
L 259.645279 51.336821 
L 259.645279 51.143333 
L 262.240812 51.143333 
L 262.240812 50.949846 
L 264.914997 50.949846 
L 264.914997 50.756358 
L 269.555496 50.756358 
L 269.555496 50.562871 
L 271.364504 50.562871 
L 271.364504 50.369383 
L 272.701597 50.369383 
L 272.701597 50.175896 
L 277.578053 50.175896 
L 277.578053 49.982408 
L 278.600536 49.982408 
L 278.600536 49.788921 
L 278.836493 49.788921 
L 278.836493 49.595433 
L 281.432026 49.595433 
L 281.432026 49.208458 
L 282.847772 49.208458 
L 282.847772 49.014971 
L 283.162382 49.014971 
L 283.162382 48.821483 
L 284.106212 48.821483 
L 284.106212 48.627996 
L 285.050042 48.627996 
L 285.050042 48.434508 
L 288.904016 48.434508 
L 288.904016 48.241021 
L 290.083803 48.241021 
L 290.083803 48.047533 
L 291.735506 48.047533 
L 291.735506 47.854046 
L 295.982742 47.854046 
L 295.982742 47.660558 
L 297.241183 47.660558 
L 297.241183 47.467071 
L 297.713098 47.467071 
L 297.713098 47.273583 
L 301.016503 47.273583 
L 301.016503 47.080096 
L 302.432249 47.080096 
L 302.432249 46.886608 
L 302.668206 46.886608 
L 302.668206 46.693121 
L 303.847994 46.693121 
L 303.847994 46.499633 
L 304.555867 46.499633 
L 304.555867 46.306146 
L 307.78062 46.306146 
L 307.78062 46.112658 
L 308.252535 46.112658 
L 308.252535 45.919171 
L 308.567145 45.919171 
L 308.567145 45.725683 
L 308.960408 45.725683 
L 308.960408 45.532196 
L 309.35367 45.532196 
L 309.35367 45.338708 
L 310.218848 45.338708 
L 310.218848 45.145221 
L 314.387432 45.145221 
L 314.387432 44.951733 
L 317.533532 44.951733 
L 317.533532 44.758246 
L 318.0841 44.758246 
L 318.0841 44.564758 
L 320.443676 44.564758 
L 320.443676 44.371271 
L 320.679633 44.371271 
L 320.679633 44.177783 
L 323.668429 44.177783 
L 323.668429 43.403833 
L 327.75836 43.403833 
L 327.75836 43.210346 
L 331.533681 43.210346 
L 331.533681 43.016858 
L 334.129214 43.016858 
L 334.129214 42.823371 
L 336.331484 42.823371 
L 336.331484 42.629883 
L 340.342763 42.629883 
L 340.342763 42.436396 
L 341.679856 42.436396 
L 341.679856 42.242908 
L 347.106879 42.242908 
L 347.106879 42.049421 
L 349.702412 42.049421 
L 349.702412 41.855933 
L 351.590073 41.855933 
L 351.590073 41.662446 
L 369.6015 41.662446 
L 369.6015 41.468958 
L 371.567813 41.468958 
L 371.567813 41.27547 
L 375.028523 41.27547 
L 375.028523 41.081983 
L 377.624057 41.081983 
L 377.624057 40.888495 
L 382.815123 40.888495 
L 382.815123 40.695008 
L 383.916258 40.695008 
L 383.916258 40.50152 
L 399.882719 40.50152 
L 399.882719 40.308033 
L 419.388544 40.308033 
L 419.388544 40.114545 
L 472.950909 40.114545 
L 472.950909 40.114545 
" clip-path="url(#pa8d631b04a)" style="fill: none; stroke: #1f77b4; stroke-width: 1.5; stroke-linecap: square"/>
   </g>
   <g id="line2d_14">
    <path d="M 67.969091 304.805455 
L 472.950909 40.114545 
" clip-path="url(#pa8d631b04a)" style="fill: none; stroke-dasharray: 5.55,2.4; stroke-dashoffset: 0; stroke: #808080; stroke-width: 1.5"/>
   </g>
   <g id="patch_3">
    <path d="M 47.72 318.04 
L 47.72 26.88 
" style="fill: none; stroke: #000000; stroke-width: 0.8; stroke-linejoin: miter; stroke-linecap: square"/>
   </g>
   <g id="patch_4">
    <path d="M 493.2 318.04 
L 493.2 26.88 
" style="fill: none; stroke: #000000; stroke-width: 0.8; stroke-linejoin: miter; stroke-linecap: square"/>
   </g>
   <g id="patch_5">
    <path d="M 47.72 318.04 
L 493.2 318.04 
" style="fill: none; stroke: #000000; stroke-width: 0.8; stroke-linejoin: miter; stroke-linecap: square"/>
   </g>
   <g id="patch_6">
    <path d="M 47.72 26.88 
L 493.2 26.88 
" style="fill: none; stroke: #000000; stroke-width: 0.8; stroke-linejoin: miter; stroke-linecap: square"/>
   </g>
   <g id="text_15">
    <!-- Random Forest ROC Curve -->
    <g transform="translate(190.711562 20.88) scale(0.12 -0.12)">
     <defs>
      <path id="DejaVuSans-6e" d="M 3513 2113 
L 3513 0 
L 2938 0 
L 2938 2094 
Q 2938 2591 2744 2837 
Q 2550 3084 2163 3084 
Q 1697 3084 1428 2787 
Q 1159 2491 1159 1978 
L 1159 0 
L 581 0 
L 581 3500 
L 1159 3500 
L 1159 2956 
Q 1366 3272 1645 3428 
Q 1925 3584 2291 3584 
Q 2894 3584 3203 3211 
Q 3513 2838 3513 2113 
z
" transform="scale(0.015625)"/>
      <path id="DejaVuSans-64" d="M 2906 2969 
L 2906 4863 
L 3481 4863 
L 3481 0 
L 2906 0 
L 2906 525 
Q 2725 213 2448 61 
Q 2172 -91 1784 -91 
Q 1150 -91 751 415 
Q 353 922 353 1747 
Q 353 2572 751 3078 
Q 1150 3584 1784 3584 
Q 2172 3584 2448 3432 
Q 2725 3281 2906 2969 
z
M 947 1747 
Q 947 1113 1208 752 
Q 1469 391 1925 391 
Q 2381 391 2643 752 
Q 2906 1113 2906 1747 
Q 2906 2381 2643 2742 
Q 2381 3103 1925 3103 
Q 1469 3103 1208 2742 
Q 947 2381 947 1747 
z
" transform="scale(0.015625)"/>
      <path id="DejaVuSans-6d" d="M 3328 2828 
Q 3544 3216 3844 3400 
Q 4144 3584 4550 3584 
Q 5097 3584 5394 3201 
Q 5691 2819 5691 2113 
L 5691 0 
L 5113 0 
L 5113 2094 
Q 5113 2597 4934 2840 
Q 4756 3084 4391 3084 
Q 3944 3084 3684 2787 
Q 3425 2491 3425 1978 
L 3425 0 
L 2847 0 
L 2847 2094 
Q 2847 2600 2669 2842 
Q 2491 3084 2119 3084 
Q 1678 3084 1418 2786 
Q 1159 2488 1159 1978 
L 1159 0 
L 581 0 
L 581 3500 
L 1159 3500 
L 1159 2956 
Q 1356 3278 1631 3431 
Q 1906 3584 2284 3584 
Q 2666 3584 2933 3390 
Q 3200 3197 3328 2828 
z
" transform="scale(0.015625)"/>
      <path id="DejaVuSans-4f" d="M 2522 4238 
Q 1834 4238 1429 3725 
Q 1025 3213 1025 2328 
Q 1025 1447 1429 934 
Q 1834 422 2522 422 
Q 3209 422 3611 934 
Q 4013 1447 4013 2328 
Q 4013 3213 3611 3725 
Q 3209 4238 2522 4238 
z
M 2522 4750 
Q 3503 4750 4090 4092 
Q 4678 3434 4678 2328 
Q 4678 1225 4090 567 
Q 3503 -91 2522 -91 
Q 1538 -91 948 565 
Q 359 1222 359 2328 
Q 359 3434 948 4092 
Q 1538 4750 2522 4750 
z
" transform="scale(0.015625)"/>
      <path id="DejaVuSans-43" d="M 4122 4306 
L 4122 3641 
Q 3803 3938 3442 4084 
Q 3081 4231 2675 4231 
Q 1875 4231 1450 3742 
Q 1025 3253 1025 2328 
Q 1025 1406 1450 917 
Q 1875 428 2675 428 
Q 3081 428 3442 575 
Q 3803 722 4122 1019 
L 4122 359 
Q 3791 134 3420 21 
Q 3050 -91 2638 -91 
Q 1578 -91 968 557 
Q 359 1206 359 2328 
Q 359 3453 968 4101 
Q 1578 4750 2638 4750 
Q 3056 4750 3426 4639 
Q 3797 4528 4122 4306 
z
" transform="scale(0.015625)"/>
     </defs>
     <use xlink:href="#DejaVuSans-52"/>
     <use xlink:href="#DejaVuSans-61" transform="translate(67.232422 0)"/>
     <use xlink:href="#DejaVuSans-6e" transform="translate(128.511719 0)"/>
     <use xlink:href="#DejaVuSans-64" transform="translate(191.890625 0)"/>
     <use xlink:href="#DejaVuSans-6f" transform="translate(255.367188 0)"/>
     <use xlink:href="#DejaVuSans-6d" transform="translate(316.548828 0)"/>
     <use xlink:href="#DejaVuSans-20" transform="translate(413.960938 0)"/>
     <use xlink:href="#DejaVuSans-46" transform="translate(445.748047 0)"/>
     <use xlink:href="#DejaVuSans-6f" transform="translate(499.642578 0)"/>
     <use xlink:href="#DejaVuSans-72" transform="translate(560.824219 0)"/>
     <use xlink:href="#DejaVuSans-65" transform="translate(599.6875 0)"/>
     <use xlink:href="#DejaVuSans-73" transform="translate(661.210938 0)"/>
     <use xlink:href="#DejaVuSans-74" transform="translate(713.310547 0)"/>
     <use xlink:href="#DejaVuSans-20" transform="translate(752.519531 0)"/>
     <use xlink:href="#DejaVuSans-52" transform="translate(784.306641 0)"/>
     <use xlink:href="#DejaVuSans-4f" transform="translate(853.789062 0)"/>
     <use xlink:href="#DejaVuSans-43" transform="translate(932.5 0)"/>
     <use xlink:href="#DejaVuSans-20" transform="translate(1002.324219 0)"/>
     <use xlink:href="#DejaVuSans-43" transform="translate(1034.111328 0)"/>
     <use xlink:href="#DejaVuSans-75" transform="translate(1103.935547 0)"/>
     <use xlink:href="#DejaVuSans-72" transform="translate(1167.314453 0)"/>
     <use xlink:href="#DejaVuSans-76" transform="translate(1208.427734 0)"/>
     <use xlink:href="#DejaVuSans-65" transform="translate(1267.607422 0)"/>
    </g>
   </g>
   <g id="legend_1">
    <g id="patch_7">
     <path d="M 54.72 49.558125 
L 151.22625 49.558125 
Q 153.22625 49.558125 153.22625 47.558125 
L 153.22625 33.88 
Q 153.22625 31.88 151.22625 31.88 
L 54.72 31.88 
Q 52.72 31.88 52.72 33.88 
L 52.72 47.558125 
Q 52.72 49.558125 54.72 49.558125 
z
" style="fill: #ffffff; opacity: 0.8; stroke: #cccccc; stroke-linejoin: miter"/>
    </g>
    <g id="line2d_15">
     <path d="M 56.72 39.978438 
L 66.72 39.978438 
L 76.72 39.978438 
" style="fill: none; stroke: #1f77b4; stroke-width: 1.5; stroke-linecap: square"/>
    </g>
    <g id="text_16">
     <!-- AUC = 0.927 -->
     <g transform="translate(84.72 43.478438) scale(0.1 -0.1)">
      <defs>
       <path id="DejaVuSans-41" d="M 2188 4044 
L 1331 1722 
L 3047 1722 
L 2188 4044 
z
M 1831 4666 
L 2547 4666 
L 4325 0 
L 3669 0 
L 3244 1197 
L 1141 1197 
L 716 0 
L 50 0 
L 1831 4666 
z
" transform="scale(0.015625)"/>
       <path id="DejaVuSans-55" d="M 556 4666 
L 1191 4666 
L 1191 1831 
Q 1191 1081 1462 751 
Q 1734 422 2344 422 
Q 2950 422 3222 751 
Q 3494 1081 3494 1831 
L 3494 4666 
L 4128 4666 
L 4128 1753 
Q 4128 841 3676 375 
Q 3225 -91 2344 -91 
Q 1459 -91 1007 375 
Q 556 841 556 1753 
L 556 4666 
z
" transform="scale(0.015625)"/>
       <path id="DejaVuSans-3d" d="M 678 2906 
L 4684 2906 
L 4684 2381 
L 678 2381 
L 678 2906 
z
M 678 1631 
L 4684 1631 
L 4684 1100 
L 678 1100 
L 678 1631 
z
" transform="scale(0.015625)"/>
       <path id="DejaVuSans-39" d="M 703 97 
L 703 672 
Q 941 559 1184 500 
Q 1428 441 1663 441 
Q 2288 441 2617 861 
Q 2947 1281 2994 2138 
Q 2813 1869 2534 1725 
Q 2256 1581 1919 1581 
Q 1219 1581 811 2004 
Q 403 2428 403 3163 
Q 403 3881 828 4315 
Q 1253 4750 1959 4750 
Q 2769 4750 3195 4129 
Q 3622 3509 3622 2328 
Q 3622 1225 3098 567 
Q 2575 -91 1691 -91 
Q 1453 -91 1209 -44 
Q 966 3 703 97 
z
M 1959 2075 
Q 2384 2075 2632 2365 
Q 2881 2656 2881 3163 
Q 2881 3666 2632 3958 
Q 2384 4250 1959 4250 
Q 1534 4250 1286 3958 
Q 1038 3666 1038 3163 
Q 1038 2656 1286 2365 
Q 1534 2075 1959 2075 
z
" transform="scale(0.015625)"/>
       <path id="DejaVuSans-37" d="M 525 4666 
L 3525 4666 
L 3525 4397 
L 1831 0 
L 1172 0 
L 2766 4134 
L 525 4134 
L 525 4666 
z
" transform="scale(0.015625)"/>
      </defs>
      <use xlink:href="#DejaVuSans-41"/>
      <use xlink:href="#DejaVuSans-55" transform="translate(68.408203 0)"/>
      <use xlink:href="#DejaVuSans-43" transform="translate(141.601562 0)"/>
      <use xlink:href="#DejaVuSans-20" transform="translate(211.425781 0)"/>
      <use xlink:href="#DejaVuSans-3d" transform="translate(243.212891 0)"/>
      <use xlink:href="#DejaVuSans-20" transform="translate(327.001953 0)"/>
      <use xlink:href="#DejaVuSans-30" transform="translate(358.789062 0)"/>
      <use xlink:href="#DejaVuSans-2e" transform="translate(422.412109 0)"/>
      <use xlink:href="#DejaVuSans-39" transform="translate(454.199219 0)"/>
      <use xlink:href="#DejaVuSans-32" transform="translate(517.822266 0)"/>
      <use xlink:href="#DejaVuSans-37" transform="translate(581.445312 0)"/>
     </g>
    </g>
   </g>
  </g>
 </g>
 <defs>
  <clipPath id="pa8d631b04a">
   <rect x="47.72" y="26.88" width="445.48" height="291.16"/>
  </clipPath>
 </defs>
</svg>
