<?xml version="1.0" encoding="utf-8" standalone="no"?>
<!DOCTYPE svg PUBLIC "-//W3C//DTD SVG 1.1//EN"
  "http://www.w3.org/Graphics/SVG/1.1/DTD/svg11.dtd">
<svg xmlns:xlink="http://www.w3.org/1999/xlink" width="504pt" height="360pt" viewBox="0 0 504 360" xmlns="http://www.w3.org/2000/svg" version="1.1">
 <metadata>
  <rdf:RDF xmlns:dc="http://purl.org/dc/elements/1.1/" xmlns:cc="http://creativecommons.org/ns#" xmlns:rdf="http://www.w3.org/1999/02/22-rdf-syntax-ns#">
   <cc:Work>
    <dc:type rdf:resource="http://purl.org/dc/dcmitype/StillImage"/>
    <dc:date>2026-05-15T20:32:59.010306</dc:date>
    <dc:format>image/svg+xml</dc:format>
    <dc:creator>
     <cc:Agent>
      <dc:title>Matplotlib v3.10.7, https://matplotlib.org/</dc:title>
     </cc:Agent>
    </dc:creator>
   </cc:Work>
  </rdf:RDF>
 </metadata>
 <defs>
  <style type="text/css">*{stroke-linejoin: round; stroke-linecap: butt}</style>
 </defs>
 <g id="figure_1">
  <g id="patch_1">
   <path d="M 0 360 
L 504 360 
L 504 0 
L 0 0 
z
" style="fill: #ffffff"/>
  </g>
  <g id="axes_1">
   <g id="patch_2">
    <path d="M 47.72 318.04 
L 493.2 318.04 
L 493.2 26.88 
L 47.72 26.88 
z
" style="fill: #ffffff"/>
   </g>
   <g id="matplotlib.axis_1">
    <g id="xtick_1">
     <g id="line2d_1">
      <defs>
       <path id="m49a065ee6f" d="M 0 0 
L 0 3.5 
" style="stroke: #000000; stroke-width: 0.8"/>
      </defs>
      <g>
       <use xlink:href="#m49a065ee6f" x="67.969091" y="318.04" style="stroke: #000000; stroke-width: 0.8"/>
      </g>
     </g>
     <g id="text_1">
      <!-- 0.0 -->
      <g transform="translate(60.017528 332.638438) scale(0.1 -0.1)">
       <defs>
        <path id="DejaVuSans-30" d="M 2034 4250 
Q 1547 4250 1301 3770 
Q 1056 3291 1056 2328 
Q 1056 1369 1301 889 
Q 1547 409 2034 409 
Q 2525 409 2770 889 
Q 3016 1369 3016 2328 
Q 3016 3291 2770 3770 
Q 2525 4250 2034 4250 
z
M 2034 4750 
Q 2819 4750 3233 4129 
Q 3647 3509 3647 2328 
Q 3647 1150 3233 529 
Q 2819 -91 2034 -91 
Q 1250 -91 836 529 
Q 422 1150 422 2328 
Q 422 3509 836 4129 
Q 1250 4750 2034 4750 
z
" transform="scale(0.015625)"/>
        <path id="DejaVuSans-2e" d="M 684 794 
L 1344 794 
L 1344 0 
L 684 0 
L 684 794 
z
" transform="scale(0.015625)"/>
       </defs>
       <use xlink:href="#DejaVuSans-30"/>
       <use xlink:href="#DejaVuSans-2e" transform="translate(63.623047 0)"/>
       <use xlink:href="#DejaVuSans-30" transform="translate(95.410156 0)"/>
      </g>
     </g>
    </g>
    <g id="xtick_2">
     <g id="line2d_2">
      <g>
       <use xlink:href="#m49a065ee6f" x="148.965455" y="318.04" style="stroke: #000000; stroke-width: 0.8"/>
      </g>
     </g>
     <g id="text_2">
      <!-- 0.2 -->
      <g transform="translate(141.013892 332.638438) scale(0.1 -0.1)">
       <defs>
        <path id="DejaVuSans-32" d="M 1228 531 
L 3431 531 
L 3431 0 
L 469 0 
L 469 531 
Q 828 903 1448 1529 
Q 2069 2156 2228 2338 
Q 2531 2678 2651 2914 
Q 2772 3150 2772 3378 
Q 2772 3750 2511 3984 
Q 2250 4219 1831 4219 
Q 1534 4219 1204 4116 
Q 875 4013 500 3803 
L 500 4441 
Q 881 4594 1212 4672 
Q 1544 4750 1819 4750 
Q 2544 4750 2975 4387 
Q 3406 4025 3406 3419 
Q 3406 3131 3298 2873 
Q 3191 2616 2906 2266 
Q 2828 2175 2409 1742 
Q 1991 1309 1228 531 
z
" transform="scale(0.015625)"/>
       </defs>
       <use xlink:href="#DejaVuSans-30"/>
       <use xlink:href="#DejaVuSans-2e" transform="translate(63.623047 0)"/>
       <use xlink:href="#DejaVuSans-32" transform="translate(95.410156 0)"/>
      </g>
     </g>
    </g>
    <g id="xtick_3">
     <g id="line2d_3">
      <g>
       <use xlink:href="#m49a065ee6f" x="229.961818" y="318.04" style="stroke: #000000; stroke-width: 0.8"/>
      </g>
     </g>
     <g id="text_3">
      <!-- 0.4 -->
      <g transform="translate(222.010256 332.638438) scale(0.1 -0.1)">
       <defs>
        <path id="DejaVuSans-34" d="M 2419 4116 
L 825 1625 
L 2419 1625 
L 2419 4116 
z
M 2253 4666 
L 3047 4666 
L 3047 1625 
L 3713 1625 
L 3713 1100 
L 3047 1100 
L 3047 0 
L 2419 0 
L 2419 1100 
L 313 1100 
L 313 1709 
L 2253 4666 
z
" transform="scale(0.015625)"/>
       </defs>
       <use xlink:href="#DejaVuSans-30"/>
       <use xlink:href="#DejaVuSans-2e" transform="translate(63.623047 0)"/>
       <use xlink:href="#DejaVuSans-34" transform="translate(95.410156 0)"/>
      </g>
     </g>
    </g>
    <g id="xtick_4">
     <g id="line2d_4">
      <g>
       <use xlink:href="#m49a065ee6f" x="310.958182" y="318.04" style="stroke: #000000; stroke-width: 0.8"/>
      </g>
     </g>
     <g id="text_4">
      <!-- 0.6 -->
      <g transform="translate(303.006619 332.638438) scale(0.1 -0.1)">
       <defs>
        <path id="DejaVuSans-36" d="M 2113 2584 
Q 1688 2584 1439 2293 
Q 1191 2003 1191 1497 
Q 1191 994 1439 701 
Q 1688 409 2113 409 
Q 2538 409 2786 701 
Q 3034 994 3034 1497 
Q 3034 2003 2786 2293 
Q 2538 2584 2113 2584 
z
M 3366 4563 
L 3366 3988 
Q 3128 4100 2886 4159 
Q 2644 4219 2406 4219 
Q 1781 4219 1451 3797 
Q 1122 3375 1075 2522 
Q 1259 2794 1537 2939 
Q 1816 3084 2150 3084 
Q 2853 3084 3261 2657 
Q 3669 2231 3669 1497 
Q 3669 778 3244 343 
Q 2819 -91 2113 -91 
Q 1303 -91 875 529 
Q 447 1150 447 2328 
Q 447 3434 972 4092 
Q 1497 4750 2381 4750 
Q 2619 4750 2861 4703 
Q 3103 4656 3366 4563 
z
" transform="scale(0.015625)"/>
       </defs>
       <use xlink:href="#DejaVuSans-30"/>
       <use xlink:href="#DejaVuSans-2e" transform="translate(63.623047 0)"/>
       <use xlink:href="#DejaVuSans-36" transform="translate(95.410156 0)"/>
      </g>
     </g>
    </g>
    <g id="xtick_5">
     <g id="line2d_5">
      <g>
       <use xlink:href="#m49a065ee6f" x="391.954545" y="318.04" style="stroke: #000000; stroke-width: 0.8"/>
      </g>
     </g>
     <g id="text_5">
      <!-- 0.8 -->
      <g transform="translate(384.002983 332.638438) scale(0.1 -0.1)">
       <defs>
        <path id="DejaVuSans-38" d="M 2034 2216 
Q 1584 2216 1326 1975 
Q 1069 1734 1069 1313 
Q 1069 891 1326 650 
Q 1584 409 2034 409 
Q 2484 409 2743 651 
Q 3003 894 3003 1313 
Q 3003 1734 2745 1975 
Q 2488 2216 2034 2216 
z
M 1403 2484 
Q 997 2584 770 2862 
Q 544 3141 544 3541 
Q 544 4100 942 4425 
Q 1341 4750 2034 4750 
Q 2731 4750 3128 4425 
Q 3525 4100 3525 3541 
Q 3525 3141 3298 2862 
Q 3072 2584 2669 2484 
Q 3125 2378 3379 2068 
Q 3634 1759 3634 1313 
Q 3634 634 3220 271 
Q 2806 -91 2034 -91 
Q 1263 -91 848 271 
Q 434 634 434 1313 
Q 434 1759 690 2068 
Q 947 2378 1403 2484 
z
M 1172 3481 
Q 1172 3119 1398 2916 
Q 1625 2713 2034 2713 
Q 2441 2713 2670 2916 
Q 2900 3119 2900 3481 
Q 2900 3844 2670 4047 
Q 2441 4250 2034 4250 
Q 1625 4250 1398 4047 
Q 1172 3844 1172 3481 
z
" transform="scale(0.015625)"/>
       </defs>
       <use xlink:href="#DejaVuSans-30"/>
       <use xlink:href="#DejaVuSans-2e" transform="translate(63.623047 0)"/>
       <use xlink:href="#DejaVuSans-38" transform="translate(95.410156 0)"/>
      </g>
     </g>
    </g>
    <g id="xtick_6">
     <g id="line2d_6">
      <g>
       <use xlink:href="#m49a065ee6f" x="472.950909" y="318.04" style="stroke: #000000; stroke-width: 0.8"/>
      </g>
     </g>
     <g id="text_6">
      <!-- 1.0 -->
      <g transform="translate(464.999347 332.638438) scale(0.1 -0.1)">
       <defs>
        <path id="DejaVuSans-31" d="M 794 531 
L 1825 531 
L 1825 4091 
L 703 3866 
L 703 4441 
L 1819 4666 
L 2450 4666 
L 2450 531 
L 3481 531 
L 3481 0 
L 794 0 
L 794 531 
z
" transform="scale(0.015625)"/>
       </defs>
       <use xlink:href="#DejaVuSans-31"/>
       <use xlink:href="#DejaVuSans-2e" transform="translate(63.623047 0)"/>
       <use xlink:href="#DejaVuSans-30" transform="translate(95.410156 0)"/>
      </g>
     </g>
    </g>
    <g id="text_7">
     <!-- False Positive Rate -->
     <g transform="translate(223.993594 346.316563) scale(0.1 -0.1)">
      <defs>
       <path id="DejaVuSans-46" d="M 628 4666 
L 3309 4666 
L 3309 4134 
L 1259 4134 
L 1259 2759 
L 3109 2759 
L 3109 2228 
L 1259 2228 
L 1259 0 
L 628 0 
L 628 4666 
z
" transform="scale(0.015625)"/>
       <path id="DejaVuSans-61" d="M 2194 1759 
Q 1497 1759 1228 1600 
Q 959 1441 959 1056 
Q 959 750 1161 570 
Q 1363 391 1709 391 
Q 2188 391 2477 730 
Q 2766 1069 2766 1631 
L 2766 1759 
L 2194 1759 
z
M 3341 1997 
L 3341 0 
L 2766 0 
L 2766 531 
Q 2569 213 2275 61 
Q 1981 -91 1556 -91 
Q 1019 -91 701 211 
Q 384 513 384 1019 
Q 384 1609 779 1909 
Q 1175 2209 1959 2209 
L 2766 2209 
L 2766 2266 
Q 2766 2663 2505 2880 
Q 2244 3097 1772 3097 
Q 1472 3097 1187 3025 
Q 903 2953 641 2809 
L 641 3341 
Q 956 3463 1253 3523 
Q 1550 3584 1831 3584 
Q 2591 3584 2966 3190 
Q 3341 2797 3341 1997 
z
" transform="scale(0.015625)"/>
       <path id="DejaVuSans-6c" d="M 603 4863 
L 1178 4863 
L 1178 0 
L 603 0 
L 603 4863 
z
" transform="scale(0.015625)"/>
       <path id="DejaVuSans-73" d="M 2834 3397 
L 2834 2853 
Q 2591 2978 2328 3040 
Q 2066 3103 1784 3103 
Q 1356 3103 1142 2972 
Q 928 2841 928 2578 
Q 928 2378 1081 2264 
Q 1234 2150 1697 2047 
L 1894 2003 
Q 2506 1872 2764 1633 
Q 3022 1394 3022 966 
Q 3022 478 2636 193 
Q 2250 -91 1575 -91 
Q 1294 -91 989 -36 
Q 684 19 347 128 
L 347 722 
Q 666 556 975 473 
Q 1284 391 1588 391 
Q 1994 391 2212 530 
Q 2431 669 2431 922 
Q 2431 1156 2273 1281 
Q 2116 1406 1581 1522 
L 1381 1569 
Q 847 1681 609 1914 
Q 372 2147 372 2553 
Q 372 3047 722 3315 
Q 1072 3584 1716 3584 
Q 2034 3584 2315 3537 
Q 2597 3491 2834 3397 
z
" transform="scale(0.015625)"/>
       <path id="DejaVuSans-65" d="M 3597 1894 
L 3597 1613 
L 953 1613 
Q 991 1019 1311 708 
Q 1631 397 2203 397 
Q 2534 397 2845 478 
Q 3156 559 3463 722 
L 3463 178 
Q 3153 47 2828 -22 
Q 2503 -91 2169 -91 
Q 1331 -91 842 396 
Q 353 884 353 1716 
Q 353 2575 817 3079 
Q 1281 3584 2069 3584 
Q 2775 3584 3186 3129 
Q 3597 2675 3597 1894 
z
M 3022 2063 
Q 3016 2534 2758 2815 
Q 2500 3097 2075 3097 
Q 1594 3097 1305 2825 
Q 1016 2553 972 2059 
L 3022 2063 
z
" transform="scale(0.015625)"/>
       <path id="DejaVuSans-20" transform="scale(0.015625)"/>
       <path id="DejaVuSans-50" d="M 1259 4147 
L 1259 2394 
L 2053 2394 
Q 2494 2394 2734 2622 
Q 2975 2850 2975 3272 
Q 2975 3691 2734 3919 
Q 2494 4147 2053 4147 
L 1259 4147 
z
M 628 4666 
L 2053 4666 
Q 2838 4666 3239 4311 
Q 3641 3956 3641 3272 
Q 3641 2581 3239 2228 
Q 2838 1875 2053 1875 
L 1259 1875 
L 1259 0 
L 628 0 
L 628 4666 
z
" transform="scale(0.015625)"/>
       <path id="DejaVuSans-6f" d="M 1959 3097 
Q 1497 3097 1228 2736 
Q 959 2375 959 1747 
Q 959 1119 1226 758 
Q 1494 397 1959 397 
Q 2419 397 2687 759 
Q 2956 1122 2956 1747 
Q 2956 2369 2687 2733 
Q 2419 3097 1959 3097 
z
M 1959 3584 
Q 2709 3584 3137 3096 
Q 3566 2609 3566 1747 
Q 3566 888 3137 398 
Q 2709 -91 1959 -91 
Q 1206 -91 779 398 
Q 353 888 353 1747 
Q 353 2609 779 3096 
Q 1206 3584 1959 3584 
z
" transform="scale(0.015625)"/>
       <path id="DejaVuSans-69" d="M 603 3500 
L 1178 3500 
L 1178 0 
L 603 0 
L 603 3500 
z
M 603 4863 
L 1178 4863 
L 1178 4134 
L 603 4134 
L 603 4863 
z
" transform="scale(0.015625)"/>
       <path id="DejaVuSans-74" d="M 1172 4494 
L 1172 3500 
L 2356 3500 
L 2356 3053 
L 1172 3053 
L 1172 1153 
Q 1172 725 1289 603 
Q 1406 481 1766 481 
L 2356 481 
L 2356 0 
L 1766 0 
Q 1100 0 847 248 
Q 594 497 594 1153 
L 594 3053 
L 172 3053 
L 172 3500 
L 594 3500 
L 594 4494 
L 1172 4494 
z
" transform="scale(0.015625)"/>
       <path id="DejaVuSans-76" d="M 191 3500 
L 800 3500 
L 1894 563 
L 2988 3500 
L 3597 3500 
L 2284 0 
L 1503 0 
L 191 3500 
z
" transform="scale(0.015625)"/>
       <path id="DejaVuSans-52" d="M 2841 2188 
Q 3044 2119 3236 1894 
Q 3428 1669 3622 1275 
L 4263 0 
L 3584 0 
L 2988 1197 
Q 2756 1666 2539 1819 
Q 2322 1972 1947 1972 
L 1259 1972 
L 1259 0 
L 628 0 
L 628 4666 
L 2053 4666 
Q 2853 4666 3247 4331 
Q 3641 3997 3641 3322 
Q 3641 2881 3436 2590 
Q 3231 2300 2841 2188 
z
M 1259 4147 
L 1259 2491 
L 2053 2491 
Q 2509 2491 2742 2702 
Q 2975 2913 2975 3322 
Q 2975 3731 2742 3939 
Q 2509 4147 2053 4147 
L 1259 4147 
z
" transform="scale(0.015625)"/>
      </defs>
      <use xlink:href="#DejaVuSans-46"/>
      <use xlink:href="#DejaVuSans-61" transform="translate(48.394531 0)"/>
      <use xlink:href="#DejaVuSans-6c" transform="translate(109.673828 0)"/>
      <use xlink:href="#DejaVuSans-73" transform="translate(137.457031 0)"/>
      <use xlink:href="#DejaVuSans-65" transform="translate(189.556641 0)"/>
      <use xlink:href="#DejaVuSans-20" transform="translate(251.080078 0)"/>
      <use xlink:href="#DejaVuSans-50" transform="translate(282.867188 0)"/>
      <use xlink:href="#DejaVuSans-6f" transform="translate(339.544922 0)"/>
      <use xlink:href="#DejaVuSans-73" transform="translate(400.726562 0)"/>
      <use xlink:href="#DejaVuSans-69" transform="translate(452.826172 0)"/>
      <use xlink:href="#DejaVuSans-74" transform="translate(480.609375 0)"/>
      <use xlink:href="#DejaVuSans-69" transform="translate(519.818359 0)"/>
      <use xlink:href="#DejaVuSans-76" transform="translate(547.601562 0)"/>
      <use xlink:href="#DejaVuSans-65" transform="translate(606.78125 0)"/>
      <use xlink:href="#DejaVuSans-20" transform="translate(668.304688 0)"/>
      <use xlink:href="#DejaVuSans-52" transform="translate(700.091797 0)"/>
      <use xlink:href="#DejaVuSans-61" transform="translate(767.324219 0)"/>
      <use xlink:href="#DejaVuSans-74" transform="translate(828.603516 0)"/>
      <use xlink:href="#DejaVuSans-65" transform="translate(867.8125 0)"/>
     </g>
    </g>
   </g>
   <g id="matplotlib.axis_2">
    <g id="ytick_1">
     <g id="line2d_7">
      <defs>
       <path id="m2be2e45635" d="M 0 0 
L -3.5 0 
" style="stroke: #000000; stroke-width: 0.8"/>
      </defs>
      <g>
       <use xlink:href="#m2be2e45635" x="47.72" y="304.805455" style="stroke: #000000; stroke-width: 0.8"/>
      </g>
     </g>
     <g id="text_8">
      <!-- 0.0 -->
      <g transform="translate(24.816875 308.604673) scale(0.1 -0.1)">
       <use xlink:href="#DejaVuSans-30"/>
       <use xlink:href="#DejaVuSans-2e" transform="translate(63.623047 0)"/>
       <use xlink:href="#DejaVuSans-30" transform="translate(95.410156 0)"/>
      </g>
     </g>
    </g>
    <g id="ytick_2">
     <g id="line2d_8">
      <g>
       <use xlink:href="#m2be2e45635" x="47.72" y="251.867273" style="stroke: #000000; stroke-width: 0.8"/>
      </g>
     </g>
     <g id="text_9">
      <!-- 0.2 -->
      <g transform="translate(24.816875 255.666491) scale(0.1 -0.1)">
       <use xlink:href="#DejaVuSans-30"/>
       <use xlink:href="#DejaVuSans-2e" transform="translate(63.623047 0)"/>
       <use xlink:href="#DejaVuSans-32" transform="translate(95.410156 0)"/>
      </g>
     </g>
    </g>
    <g id="ytick_3">
     <g id="line2d_9">
      <g>
       <use xlink:href="#m2be2e45635" x="47.72" y="198.929091" style="stroke: #000000; stroke-width: 0.8"/>
      </g>
     </g>
     <g id="text_10">
      <!-- 0.4 -->
      <g transform="translate(24.816875 202.72831) scale(0.1 -0.1)">
       <use xlink:href="#DejaVuSans-30"/>
       <use xlink:href="#DejaVuSans-2e" transform="translate(63.623047 0)"/>
       <use xlink:href="#DejaVuSans-34" transform="translate(95.410156 0)"/>
      </g>
     </g>
    </g>
    <g id="ytick_4">
     <g id="line2d_10">
      <g>
       <use xlink:href="#m2be2e45635" x="47.72" y="145.990909" style="stroke: #000000; stroke-width: 0.8"/>
      </g>
     </g>
     <g id="text_11">
      <!-- 0.6 -->
      <g transform="translate(24.816875 149.790128) scale(0.1 -0.1)">
       <use xlink:href="#DejaVuSans-30"/>
       <use xlink:href="#DejaVuSans-2e" transform="translate(63.623047 0)"/>
       <use xlink:href="#DejaVuSans-36" transform="translate(95.410156 0)"/>
      </g>
     </g>
    </g>
    <g id="ytick_5">
     <g id="line2d_11">
      <g>
       <use xlink:href="#m2be2e45635" x="47.72" y="93.052727" style="stroke: #000000; stroke-width: 0.8"/>
      </g>
     </g>
     <g id="text_12">
      <!-- 0.8 -->
      <g transform="translate(24.816875 96.851946) scale(0.1 -0.1)">
       <use xlink:href="#DejaVuSans-30"/>
       <use xlink:href="#DejaVuSans-2e" transform="translate(63.623047 0)"/>
       <use xlink:href="#DejaVuSans-38" transform="translate(95.410156 0)"/>
      </g>
     </g>
    </g>
    <g id="ytick_6">
     <g id="line2d_12">
      <g>
       <use xlink:href="#m2be2e45635" x="47.72" y="40.114545" style="stroke: #000000; stroke-width: 0.8"/>
      </g>
     </g>
     <g id="text_13">
      <!-- 1.0 -->
      <g transform="translate(24.816875 43.913764) scale(0.1 -0.1)">
       <use xlink:href="#DejaVuSans-31"/>
       <use xlink:href="#DejaVuSans-2e" transform="translate(63.623047 0)"/>
       <use xlink:href="#DejaVuSans-30" transform="translate(95.410156 0)"/>
      </g>
     </g>
    </g>
    <g id="text_14">
     <!-- True Positive Rate -->
     <g transform="translate(18.737188 216.989688) rotate(-90) scale(0.1 -0.1)">
      <defs>
       <path id="DejaVuSans-54" d="M -19 4666 
L 3928 4666 
L 3928 4134 
L 2272 4134 
L 2272 0 
L 1638 0 
L 1638 4134 
L -19 4134 
L -19 4666 
z
" transform="scale(0.015625)"/>
       <path id="DejaVuSans-72" d="M 2631 2963 
Q 2534 3019 2420 3045 
Q 2306 3072 2169 3072 
Q 1681 3072 1420 2755 
Q 1159 2438 1159 1844 
L 1159 0 
L 581 0 
L 581 3500 
L 1159 3500 
L 1159 2956 
Q 1341 3275 1631 3429 
Q 1922 3584 2338 3584 
Q 2397 3584 2469 3576 
Q 2541 3569 2628 3553 
L 2631 2963 
z
" transform="scale(0.015625)"/>
       <path id="DejaVuSans-75" d="M 544 1381 
L 544 3500 
L 1119 3500 
L 1119 1403 
Q 1119 906 1312 657 
Q 1506 409 1894 409 
Q 2359 409 2629 706 
Q 2900 1003 2900 1516 
L 2900 3500 
L 3475 3500 
L 3475 0 
L 2900 0 
L 2900 538 
Q 2691 219 2414 64 
Q 2138 -91 1772 -91 
Q 1169 -91 856 284 
Q 544 659 544 1381 
z
M 1991 3584 
L 1991 3584 
z
" transform="scale(0.015625)"/>
      </defs>
      <use xlink:href="#DejaVuSans-54"/>
      <use xlink:href="#DejaVuSans-72" transform="translate(46.333984 0)"/>
      <use xlink:href="#DejaVuSans-75" transform="translate(87.447266 0)"/>
      <use xlink:href="#DejaVuSans-65" transform="translate(150.826172 0)"/>
      <use xlink:href="#DejaVuSans-20" transform="translate(212.349609 0)"/>
      <use xlink:href="#DejaVuSans-50" transform="translate(244.136719 0)"/>
      <use xlink:href="#DejaVuSans-6f" transform="translate(300.814453 0)"/>
      <use xlink:href="#DejaVuSans-73" transform="translate(361.996094 0)"/>
      <use xlink:href="#DejaVuSans-69" transform="translate(414.095703 0)"/>
      <use xlink:href="#DejaVuSans-74" transform="translate(441.878906 0)"/>
      <use xlink:href="#DejaVuSans-69" transform="translate(481.087891 0)"/>
      <use xlink:href="#DejaVuSans-76" transform="translate(508.871094 0)"/>
      <use xlink:href="#DejaVuSans-65" transform="translate(568.050781 0)"/>
      <use xlink:href="#DejaVuSans-20" transform="translate(629.574219 0)"/>
      <use xlink:href="#DejaVuSans-52" transform="translate(661.361328 0)"/>
      <use xlink:href="#DejaVuSans-61" transform="translate(728.59375 0)"/>
      <use xlink:href="#DejaVuSans-74" transform="translate(789.873047 0)"/>
      <use xlink:href="#DejaVuSans-65" transform="translate(829.082031 0)"/>
     </g>
    </g>
   </g>
   <g id="line2d_13">
    <path d="M 67.969091 304.805455 
L 68.047743 302.483604 
L 68.126396 302.483604 
L 68.205048 293.583179 
L 68.283701 293.583179 
L 68.362354 285.263216 
L 68.441006 285.263216 
L 68.519659 275.395354 
L 68.598311 275.395354 
L 68.676964 268.623291 
L 68.755616 268.623291 
L 68.834269 262.625178 
L 68.912921 262.625178 
L 68.991574 260.303328 
L 69.070226 260.303328 
L 69.148879 250.82244 
L 69.227531 250.82244 
L 69.306184 248.50059 
L 69.384836 248.50059 
L 69.463489 247.72664 
L 69.542141 247.72664 
L 69.620794 240.374115 
L 69.699446 240.374115 
L 69.778099 233.79554 
L 69.856751 233.79554 
L 69.935404 230.893227 
L 70.014056 230.893227 
L 70.014056 229.732302 
L 70.250014 229.732302 
L 70.328666 227.216964 
L 70.407319 227.216964 
L 70.485972 225.282089 
L 70.564624 225.282089 
L 70.643277 222.766752 
L 70.721929 222.766752 
L 70.800582 218.703514 
L 70.957887 218.703514 
L 70.957887 217.736077 
L 71.115192 217.736077 
L 71.193844 214.833764 
L 71.272497 214.833764 
L 71.351149 213.866326 
L 71.429802 213.866326 
L 71.508454 213.285864 
L 71.587107 213.285864 
L 71.665759 212.124939 
L 71.744412 212.124939 
L 71.823064 211.157501 
L 71.901717 211.157501 
L 71.980369 209.416114 
L 72.059022 209.416114 
L 72.059022 208.835651 
L 72.294979 208.835651 
L 72.373632 207.674726 
L 72.452284 207.674726 
L 72.452284 207.481239 
L 72.60959 207.481239 
L 72.688242 206.320314 
L 72.766895 206.320314 
L 72.845547 205.352876 
L 73.160157 205.352876 
L 73.23881 204.191951 
L 73.317462 204.191951 
L 73.396115 202.644051 
L 73.474767 202.644051 
L 73.474767 201.870101 
L 73.632072 201.870101 
L 73.710725 201.289638 
L 73.86803 201.289638 
L 73.946682 199.741738 
L 74.103987 199.741738 
L 74.103987 199.354763 
L 74.261292 199.354763 
L 74.339945 198.580813 
L 74.49725 198.580813 
L 74.49725 197.419888 
L 74.654555 197.419888 
L 74.733208 196.839426 
L 74.81186 196.839426 
L 74.81186 196.645938 
L 74.969165 196.645938 
L 75.047818 196.065476 
L 75.519733 196.065476 
L 75.598385 195.291526 
L 75.677038 195.291526 
L 75.677038 194.904551 
L 75.912995 194.904551 
L 75.912995 194.324088 
L 76.0703 194.324088 
L 76.148953 193.743626 
L 76.227605 193.743626 
L 76.306258 192.582701 
L 76.463563 192.582701 
L 76.463563 192.389213 
L 76.620868 192.389213 
L 76.69952 191.615263 
L 76.856826 191.615263 
L 76.935478 190.454338 
L 77.014131 190.454338 
L 77.092783 189.680388 
L 77.250088 189.680388 
L 77.250088 189.486901 
L 77.486046 189.486901 
L 77.564698 188.712951 
L 77.722003 188.712951 
L 77.800656 187.358538 
L 77.879308 187.358538 
L 77.957961 186.584588 
L 78.272571 186.584588 
L 78.351223 186.004125 
L 78.429876 186.004125 
L 78.429876 185.61715 
L 78.665833 185.61715 
L 78.744486 185.036688 
L 78.823138 185.036688 
L 78.901791 184.456225 
L 79.216401 184.456225 
L 79.216401 184.06925 
L 79.531011 184.06925 
L 79.531011 183.875763 
L 79.688316 183.875763 
L 79.766969 183.2953 
L 80.002926 183.2953 
L 80.002926 182.52135 
L 80.238884 182.52135 
L 80.238884 181.7474 
L 80.396189 181.7474 
L 80.396189 181.360425 
L 80.632146 181.360425 
L 80.710799 179.038575 
L 81.104062 179.038575 
L 81.182714 177.684163 
L 81.340019 177.684163 
L 81.418672 177.1037 
L 81.733282 177.1037 
L 81.733282 176.910213 
L 81.890587 176.910213 
L 81.969239 175.5558 
L 82.047892 175.5558 
L 82.126544 174.975338 
L 82.283849 174.975338 
L 82.283849 174.78185 
L 82.834417 174.78185 
L 82.834417 174.588363 
L 82.991722 174.588363 
L 83.070374 174.201388 
L 83.306332 174.201388 
L 83.384985 173.814413 
L 83.935552 173.814413 
L 83.935552 173.620925 
L 84.17151 173.620925 
L 84.250162 172.846975 
L 84.407467 172.846975 
L 84.407467 172.653488 
L 85.193992 172.653488 
L 85.193992 172.46 
L 85.351298 172.46 
L 85.42995 171.879537 
L 85.508603 171.879537 
L 85.587255 170.525125 
L 85.823213 170.525125 
L 85.823213 170.331637 
L 85.980518 170.331637 
L 85.980518 170.13815 
L 86.137823 170.13815 
L 86.137823 169.944662 
L 86.295128 169.944662 
L 86.295128 169.751175 
L 86.452433 169.751175 
L 86.452433 169.557687 
L 86.845695 169.557687 
L 86.924348 168.977225 
L 87.160305 168.977225 
L 87.160305 168.59025 
L 88.025483 168.59025 
L 88.104136 168.009787 
L 88.261441 168.009787 
L 88.340093 167.04235 
L 88.418746 167.04235 
L 88.497398 165.687937 
L 88.890661 165.687937 
L 88.890661 165.49445 
L 89.205271 165.49445 
L 89.205271 165.300962 
L 89.677186 165.300962 
L 89.755839 164.913987 
L 89.991796 164.913987 
L 89.991796 164.7205 
L 90.306406 164.7205 
L 90.385059 164.140037 
L 90.463711 164.140037 
L 90.542364 163.753062 
L 90.621016 163.753062 
L 90.621016 163.559575 
L 90.935626 163.559575 
L 91.014279 162.785625 
L 91.171584 162.785625 
L 91.171584 162.39865 
L 91.643499 162.39865 
L 91.643499 162.205162 
L 91.800804 162.205162 
L 91.800804 162.011675 
L 92.036762 162.011675 
L 92.036762 161.818187 
L 92.272719 161.818187 
L 92.272719 161.6247 
L 92.508677 161.6247 
L 92.508677 161.431212 
L 92.744634 161.431212 
L 92.744634 161.044237 
L 92.901939 161.044237 
L 92.901939 160.657262 
L 93.295202 160.657262 
L 93.295202 160.463775 
L 93.452507 160.463775 
L 93.452507 160.270287 
L 93.767117 160.270287 
L 93.767117 160.0768 
L 94.239032 160.0768 
L 94.239032 158.5289 
L 94.710947 158.5289 
L 94.7896 158.141925 
L 95.025557 158.141925 
L 95.10421 157.754949 
L 95.340167 157.754949 
L 95.340167 157.367974 
L 95.497472 157.367974 
L 95.497472 157.174487 
L 95.654777 157.174487 
L 95.654777 156.787512 
L 95.969388 156.787512 
L 96.04804 156.013562 
L 96.441303 156.013562 
L 96.441303 155.820074 
L 96.67726 155.820074 
L 96.67726 155.239612 
L 96.834565 155.239612 
L 96.834565 155.046124 
L 97.149175 155.046124 
L 97.149175 154.852637 
L 97.463785 154.852637 
L 97.463785 154.465662 
L 97.62109 154.465662 
L 97.699743 153.498224 
L 97.857048 153.498224 
L 97.857048 153.304737 
L 98.171658 153.304737 
L 98.171658 153.111249 
L 98.564921 153.111249 
L 98.564921 152.917762 
L 99.115488 152.917762 
L 99.115488 152.530787 
L 99.666056 152.530787 
L 99.666056 152.337299 
L 99.902013 152.337299 
L 99.902013 152.143812 
L 100.137971 152.143812 
L 100.137971 151.563349 
L 100.373929 151.563349 
L 100.373929 151.369862 
L 100.767191 151.369862 
L 100.845844 150.982887 
L 101.317759 150.982887 
L 101.317759 150.208937 
L 101.946979 150.208937 
L 101.946979 150.015449 
L 102.104284 150.015449 
L 102.104284 149.821962 
L 102.418894 149.821962 
L 102.497547 149.434987 
L 102.654852 149.434987 
L 102.654852 149.241499 
L 102.969462 149.241499 
L 102.969462 149.048012 
L 103.126767 149.048012 
L 103.126767 148.854524 
L 103.362724 148.854524 
L 103.362724 148.467549 
L 103.598682 148.467549 
L 103.677334 148.080574 
L 103.991944 148.080574 
L 104.070597 147.500112 
L 104.227902 147.500112 
L 104.306554 147.113137 
L 104.542512 147.113137 
L 104.542512 146.919649 
L 105.329037 146.919649 
L 105.329037 146.726162 
L 105.800952 146.726162 
L 105.879605 146.145699 
L 106.115562 146.145699 
L 106.115562 145.952212 
L 106.823435 145.952212 
L 106.902088 144.984774 
L 106.98074 144.984774 
L 107.059393 144.404312 
L 107.138045 144.404312 
L 107.138045 144.210824 
L 107.29535 144.210824 
L 107.374003 143.823849 
L 107.452655 143.823849 
L 107.452655 143.630362 
L 107.767265 143.630362 
L 107.767265 143.436874 
L 107.92457 143.436874 
L 108.081875 143.243386 
L 108.160528 142.275949 
L 108.23918 142.275949 
L 108.23918 142.082461 
L 108.632443 142.082461 
L 108.632443 141.695486 
L 108.868401 141.695486 
L 108.868401 141.501999 
L 109.183011 141.501999 
L 109.183011 141.308511 
L 109.340316 141.308511 
L 109.340316 140.921536 
L 109.497621 140.921536 
L 109.497621 140.728049 
L 109.654926 140.728049 
L 109.654926 140.534561 
L 110.048188 140.534561 
L 110.126841 140.147586 
L 110.284146 140.147586 
L 110.362798 139.567124 
L 110.441451 139.567124 
L 110.441451 139.373636 
L 111.463934 139.373636 
L 111.463934 139.180149 
L 111.621239 139.180149 
L 111.621239 138.599686 
L 112.171806 138.599686 
L 112.171806 138.406199 
L 112.565069 138.406199 
L 112.643721 138.019224 
L 112.801027 138.019224 
L 112.879679 137.438761 
L 112.958332 137.438761 
L 113.036984 137.051786 
L 113.430247 137.051786 
L 113.430247 136.664811 
L 113.823509 136.664811 
L 113.823509 136.471324 
L 114.295424 136.471324 
L 114.295424 136.277836 
L 114.767339 136.277836 
L 114.845992 135.697374 
L 115.003297 135.697374 
L 115.08195 134.923424 
L 115.789822 134.923424 
L 115.789822 134.729936 
L 116.02578 134.729936 
L 116.104432 134.342961 
L 116.183085 134.342961 
L 116.183085 134.149474 
L 116.576347 134.149474 
L 116.655 133.762499 
L 118.070745 133.762499 
L 118.070745 133.569011 
L 118.306703 133.569011 
L 118.306703 133.375524 
L 118.778618 133.375524 
L 118.778618 133.182036 
L 118.935923 133.182036 
L 118.935923 132.988549 
L 119.093228 132.988549 
L 119.093228 132.601574 
L 119.329186 132.601574 
L 119.329186 132.214599 
L 119.486491 132.214599 
L 119.486491 132.021111 
L 120.037058 132.021111 
L 120.115711 131.634136 
L 120.430321 131.634136 
L 120.430321 131.440649 
L 120.587626 131.440649 
L 120.587626 130.860186 
L 121.138193 130.860186 
L 121.138193 130.279724 
L 121.531456 130.279724 
L 121.531456 130.086236 
L 122.239329 130.086236 
L 122.239329 129.892749 
L 122.553939 129.892749 
L 122.553939 129.505774 
L 122.789896 129.505774 
L 122.868549 129.118799 
L 123.104506 129.118799 
L 123.104506 128.925311 
L 123.340464 128.925311 
L 123.340464 128.151361 
L 123.576422 128.151361 
L 123.655074 127.764386 
L 123.733727 127.764386 
L 123.733727 127.377411 
L 123.891032 127.377411 
L 123.891032 127.183923 
L 124.598904 127.183923 
L 124.598904 126.990436 
L 124.834862 126.990436 
L 124.834862 126.796948 
L 125.464082 126.796948 
L 125.542735 126.409973 
L 125.935997 126.409973 
L 125.935997 126.216486 
L 126.801175 126.216486 
L 126.801175 126.022998 
L 128.53153 126.022998 
L 128.53153 125.442536 
L 128.767488 125.442536 
L 128.767488 125.249048 
L 129.239403 125.249048 
L 129.239403 124.862073 
L 129.947276 124.862073 
L 129.947276 124.668586 
L 130.340538 124.668586 
L 130.340538 124.281611 
L 130.576496 124.281611 
L 130.576496 124.088123 
L 131.048411 124.088123 
L 131.048411 123.894636 
L 131.284368 123.894636 
L 131.363021 123.314173 
L 131.598978 123.314173 
L 131.598978 122.927198 
L 132.149546 122.927198 
L 132.228199 122.540223 
L 132.621461 122.540223 
L 132.621461 122.153248 
L 132.857419 122.153248 
L 132.857419 121.959761 
L 133.093376 121.959761 
L 133.093376 121.766273 
L 133.250681 121.766273 
L 133.250681 121.572786 
L 134.037207 121.572786 
L 134.115859 121.185811 
L 134.194512 121.185811 
L 134.194512 120.798836 
L 134.587774 120.798836 
L 134.587774 120.605348 
L 134.902384 120.605348 
L 134.902384 120.218373 
L 135.688909 120.218373 
L 135.688909 120.024886 
L 136.396782 120.024886 
L 136.396782 119.637911 
L 136.63274 119.637911 
L 136.63274 119.444423 
L 136.868697 119.444423 
L 136.868697 119.250936 
L 137.026002 119.250936 
L 137.026002 119.057448 
L 137.89118 119.057448 
L 137.969832 118.670473 
L 138.127137 118.670473 
L 138.20579 118.283498 
L 138.363095 118.283498 
L 138.363095 118.090011 
L 138.756358 118.090011 
L 138.83501 117.703036 
L 139.306925 117.703036 
L 139.306925 117.509548 
L 140.486713 117.509548 
L 140.486713 117.316061 
L 140.722671 117.316061 
L 140.722671 117.122573 
L 141.037281 117.122573 
L 141.037281 116.929086 
L 141.273238 116.929086 
L 141.273238 116.348623 
L 141.666501 116.348623 
L 141.666501 116.155136 
L 141.981111 116.155136 
L 141.981111 115.961648 
L 142.610331 115.961648 
L 142.610331 115.768161 
L 142.924941 115.768161 
L 142.924941 115.574673 
L 143.082246 115.574673 
L 143.082246 115.381186 
L 143.396856 115.381186 
L 143.396856 114.994211 
L 144.183381 114.994211 
L 144.262034 114.607236 
L 144.655297 114.607236 
L 144.655297 114.026773 
L 145.205864 114.026773 
L 145.205864 113.639798 
L 145.363169 113.639798 
L 145.363169 113.44631 
L 145.992389 113.44631 
L 145.992389 113.252823 
L 146.149694 113.252823 
L 146.149694 113.059335 
L 146.464304 113.059335 
L 146.464304 112.865848 
L 146.700262 112.865848 
L 146.778915 112.285385 
L 147.172177 112.285385 
L 147.172177 112.091898 
L 147.644092 112.091898 
L 147.644092 111.89841 
L 148.037355 111.89841 
L 148.037355 111.704923 
L 148.587922 111.704923 
L 148.666575 111.317948 
L 149.059838 111.317948 
L 149.059838 111.12446 
L 149.217143 111.12446 
L 149.217143 110.930973 
L 149.4531 110.930973 
L 149.4531 110.543998 
L 149.76771 110.543998 
L 149.76771 110.35051 
L 150.160973 110.35051 
L 150.160973 110.157023 
L 150.790193 110.157023 
L 150.790193 109.963535 
L 150.947498 109.963535 
L 150.947498 109.770048 
L 151.734023 109.770048 
L 151.734023 109.57656 
L 151.891328 109.57656 
L 151.891328 109.383073 
L 152.677853 109.383073 
L 152.677853 108.996098 
L 153.385726 108.996098 
L 153.385726 108.80261 
L 153.543031 108.80261 
L 153.543031 108.609123 
L 153.778989 108.609123 
L 153.778989 108.02866 
L 154.408209 108.02866 
L 154.408209 107.835173 
L 155.037429 107.835173 
L 155.116081 107.061223 
L 155.902607 107.061223 
L 155.902607 106.867735 
L 156.217217 106.867735 
L 156.217217 106.674248 
L 156.453174 106.674248 
L 156.453174 106.48076 
L 157.082394 106.48076 
L 157.082394 106.287273 
L 157.2397 106.287273 
L 157.2397 106.093785 
L 157.397005 106.093785 
L 157.397005 105.900298 
L 157.632962 105.900298 
L 157.632962 105.70681 
L 157.947572 105.70681 
L 157.947572 105.513323 
L 158.104877 105.513323 
L 158.104877 105.319835 
L 158.576792 105.319835 
L 158.576792 104.93286 
L 158.81275 104.93286 
L 158.81275 104.739373 
L 159.75658 104.739373 
L 159.75658 104.545885 
L 161.644241 104.545885 
L 161.644241 104.352398 
L 161.880198 104.352398 
L 161.880198 103.965423 
L 162.037503 103.965423 
L 162.037503 103.771935 
L 162.273461 103.771935 
L 162.273461 103.578448 
L 162.588071 103.578448 
L 162.588071 103.38496 
L 163.217291 103.38496 
L 163.217291 103.191473 
L 163.531901 103.191473 
L 163.531901 102.997985 
L 165.340909 102.997985 
L 165.340909 102.61101 
L 165.812824 102.61101 
L 165.812824 102.417523 
L 167.936442 102.417523 
L 167.936442 102.224035 
L 168.329705 102.224035 
L 168.408357 101.256598 
L 168.48701 101.256598 
L 168.48701 101.06311 
L 169.824102 101.06311 
L 169.902755 100.676135 
L 170.217365 100.676135 
L 170.217365 99.902185 
L 171.082543 99.902185 
L 171.082543 99.708698 
L 171.397153 99.708698 
L 171.397153 99.128235 
L 171.63311 99.128235 
L 171.711763 98.74126 
L 171.94772 98.74126 
L 171.94772 98.547772 
L 172.105026 98.547772 
L 172.105026 98.354285 
L 172.891551 98.354285 
L 172.970203 97.773822 
L 173.599423 97.773822 
L 173.599423 97.580335 
L 173.835381 97.580335 
L 173.835381 97.386847 
L 174.071338 97.386847 
L 174.149991 96.806385 
L 174.464601 96.806385 
L 174.464601 96.612897 
L 175.801694 96.612897 
L 175.880346 96.225922 
L 177.060134 96.225922 
L 177.060134 96.032435 
L 177.217439 96.032435 
L 177.217439 95.838947 
L 177.846659 95.838947 
L 177.846659 95.64546 
L 178.003964 95.64546 
L 178.003964 95.451972 
L 178.633185 95.451972 
L 178.633185 95.064997 
L 179.577015 95.064997 
L 179.577015 94.87151 
L 180.284887 94.87151 
L 180.284887 94.678022 
L 181.071413 94.678022 
L 181.071413 94.484535 
L 181.30737 94.484535 
L 181.30737 94.291047 
L 181.779285 94.291047 
L 181.779285 94.09756 
L 182.644463 94.09756 
L 182.644463 93.904072 
L 182.801768 93.904072 
L 182.801768 93.710585 
L 183.195031 93.710585 
L 183.195031 93.32361 
L 184.374818 93.32361 
L 184.374818 93.130122 
L 184.532123 93.130122 
L 184.532123 92.936635 
L 185.869216 92.936635 
L 185.947869 92.54966 
L 186.813046 92.54966 
L 186.813046 92.162685 
L 187.049004 92.162685 
L 187.049004 91.969197 
L 188.386097 91.969197 
L 188.464749 91.582222 
L 189.801842 91.582222 
L 189.801842 91.195247 
L 191.060282 91.195247 
L 191.060282 90.614785 
L 191.217588 90.614785 
L 191.217588 90.421297 
L 191.374893 90.421297 
L 191.374893 90.22781 
L 192.24007 90.22781 
L 192.318723 89.840835 
L 192.86929 89.840835 
L 192.86929 89.45386 
L 193.419858 89.45386 
L 193.498511 89.066885 
L 193.577163 89.066885 
L 193.577163 88.67991 
L 193.734468 88.67991 
L 193.734468 88.292935 
L 194.520993 88.292935 
L 194.520993 88.099447 
L 195.622129 88.099447 
L 195.622129 87.90596 
L 196.172696 87.90596 
L 196.251349 87.518985 
L 197.509789 87.518985 
L 197.509789 87.325497 
L 197.667094 87.325497 
L 197.667094 87.13201 
L 198.768229 87.13201 
L 198.768229 86.938522 
L 199.554754 86.938522 
L 199.554754 86.745035 
L 200.498585 86.745035 
L 200.498585 86.551547 
L 201.363762 86.551547 
L 201.363762 86.35806 
L 201.59972 86.35806 
L 201.59972 86.164572 
L 202.150288 86.164572 
L 202.150288 85.971085 
L 203.251423 85.971085 
L 203.330075 85.58411 
L 204.588516 85.58411 
L 204.588516 85.390622 
L 205.217736 85.390622 
L 205.217736 85.197135 
L 205.925609 85.197135 
L 205.925609 85.003647 
L 207.026744 85.003647 
L 207.026744 84.810159 
L 207.262701 84.810159 
L 207.262701 84.616672 
L 207.420006 84.616672 
L 207.498659 84.229697 
L 207.970574 84.229697 
L 207.970574 84.036209 
L 208.206532 84.036209 
L 208.206532 83.649234 
L 208.835752 83.649234 
L 208.835752 83.455747 
L 209.229014 83.455747 
L 209.229014 83.262259 
L 209.543624 83.262259 
L 209.543624 83.068772 
L 210.094192 83.068772 
L 210.094192 82.875284 
L 211.116675 82.875284 
L 211.116675 82.488309 
L 211.352632 82.488309 
L 211.352632 82.294822 
L 212.453768 82.294822 
L 212.453768 82.101334 
L 213.712208 82.101334 
L 213.712208 81.907847 
L 214.813343 81.907847 
L 214.813343 81.714359 
L 215.206606 81.714359 
L 215.206606 81.520872 
L 216.936961 81.520872 
L 216.936961 81.327384 
L 217.802139 81.327384 
L 217.802139 81.133897 
L 218.274054 81.133897 
L 218.274054 80.940409 
L 218.745969 80.940409 
L 218.745969 80.746922 
L 219.768452 80.746922 
L 219.768452 80.553434 
L 220.712282 80.553434 
L 220.712282 80.359947 
L 220.869587 80.359947 
L 220.869587 79.972972 
L 221.26285 79.972972 
L 221.341502 79.585997 
L 221.89207 79.585997 
L 221.89207 79.392509 
L 223.46512 79.392509 
L 223.46512 79.199022 
L 224.09434 79.199022 
L 224.09434 78.812047 
L 225.116823 78.812047 
L 225.116823 78.618559 
L 225.588738 78.618559 
L 225.588738 78.425072 
L 226.060653 78.425072 
L 226.060653 78.231584 
L 228.498881 78.231584 
L 228.498881 78.038097 
L 228.734839 78.038097 
L 228.734839 77.844609 
L 229.285407 77.844609 
L 229.285407 77.651122 
L 230.150584 77.651122 
L 230.150584 77.457634 
L 230.465194 77.457634 
L 230.465194 77.264147 
L 230.779804 77.264147 
L 230.779804 77.070659 
L 231.487677 77.070659 
L 231.487677 76.877172 
L 232.116897 76.877172 
L 232.116897 76.683684 
L 232.746117 76.683684 
L 232.82477 76.296709 
L 233.13938 76.296709 
L 233.13938 76.103222 
L 233.296685 76.103222 
L 233.296685 75.909734 
L 233.45399 75.909734 
L 233.45399 75.716247 
L 233.847253 75.716247 
L 233.847253 75.329272 
L 234.004558 75.329272 
L 234.004558 75.135784 
L 234.869735 75.135784 
L 234.869735 74.942297 
L 236.678743 74.942297 
L 236.678743 74.748809 
L 237.150658 74.748809 
L 237.150658 74.555322 
L 237.858531 74.555322 
L 237.858531 74.361834 
L 239.038319 74.361834 
L 239.038319 74.168347 
L 239.195624 74.168347 
L 239.195624 73.974859 
L 239.903497 73.974859 
L 239.903497 73.781372 
L 240.925979 73.781372 
L 240.925979 73.587884 
L 241.476547 73.587884 
L 241.476547 73.394397 
L 242.105767 73.394397 
L 242.105767 73.200909 
L 242.81364 73.200909 
L 242.81364 73.007422 
L 243.285555 73.007422 
L 243.285555 72.813934 
L 243.600165 72.813934 
L 243.600165 72.620447 
L 245.566478 72.620447 
L 245.566478 72.426959 
L 246.117045 72.426959 
L 246.117045 72.233472 
L 248.319316 72.233472 
L 248.319316 72.039984 
L 249.499104 72.039984 
L 249.499104 71.459522 
L 251.072154 71.459522 
L 251.072154 71.266034 
L 251.465417 71.266034 
L 251.465417 71.072547 
L 253.274425 71.072547 
L 253.274425 70.879059 
L 254.37556 70.879059 
L 254.37556 70.685572 
L 255.634 70.685572 
L 255.712653 70.105109 
L 256.184568 70.105109 
L 256.184568 69.911621 
L 256.341873 69.911621 
L 256.341873 69.718134 
L 256.813788 69.718134 
L 256.813788 69.524646 
L 258.229533 69.524646 
L 258.229533 69.331159 
L 261.690244 69.331159 
L 261.690244 69.137671 
L 262.634074 69.137671 
L 262.634074 68.750696 
L 262.791379 68.750696 
L 262.791379 68.557209 
L 263.263295 68.557209 
L 263.263295 68.363721 
L 264.443082 68.363721 
L 264.443082 68.170234 
L 264.836345 68.170234 
L 264.836345 67.976746 
L 265.386913 67.976746 
L 265.386913 67.783259 
L 266.802658 67.783259 
L 266.802658 67.589771 
L 267.825141 67.589771 
L 267.825141 67.396284 
L 268.061098 67.396284 
L 268.139751 67.009309 
L 268.297056 67.009309 
L 268.297056 66.815821 
L 268.926276 66.815821 
L 269.004928 66.428846 
L 269.240886 66.428846 
L 269.240886 66.235359 
L 270.106064 66.235359 
L 270.106064 66.041871 
L 271.207199 66.041871 
L 271.207199 65.848384 
L 271.993724 65.848384 
L 271.993724 65.654896 
L 272.858902 65.654896 
L 272.858902 65.461409 
L 273.881385 65.461409 
L 273.881385 65.267921 
L 275.375782 65.267921 
L 275.375782 65.074434 
L 275.92635 65.074434 
L 275.92635 64.880946 
L 276.712875 64.880946 
L 276.712875 64.687459 
L 279.072451 64.687459 
L 279.072451 64.300484 
L 279.229756 64.300484 
L 279.229756 64.106996 
L 279.780323 64.106996 
L 279.780323 63.720021 
L 280.016281 63.720021 
L 280.016281 63.526534 
L 280.960111 63.526534 
L 280.960111 63.139559 
L 281.117416 63.139559 
L 281.117416 62.752584 
L 281.746636 62.752584 
L 281.746636 62.559096 
L 283.241034 62.559096 
L 283.241034 62.365609 
L 283.476992 62.365609 
L 283.476992 62.172121 
L 283.791602 62.172121 
L 283.791602 61.978634 
L 284.499475 61.978634 
L 284.499475 61.785146 
L 285.050042 61.785146 
L 285.050042 61.591659 
L 290.791676 61.591659 
L 290.791676 61.398171 
L 294.566997 61.398171 
L 294.566997 61.204684 
L 296.2187 61.204684 
L 296.2187 61.011196 
L 296.769267 61.011196 
L 296.769267 60.817709 
L 297.083878 60.817709 
L 297.083878 60.624221 
L 298.42097 60.624221 
L 298.42097 60.430734 
L 299.522106 60.430734 
L 299.522106 59.850271 
L 300.308631 59.850271 
L 300.308631 59.656784 
L 301.331114 59.656784 
L 301.331114 59.463296 
L 301.488419 59.463296 
L 301.488419 59.269809 
L 305.657002 59.269809 
L 305.657002 59.076321 
L 306.600832 59.076321 
L 306.600832 58.882834 
L 309.196365 58.882834 
L 309.196365 58.689346 
L 310.454806 58.689346 
L 310.454806 58.495859 
L 310.769416 58.495859 
L 310.769416 58.302371 
L 312.027856 58.302371 
L 312.027856 58.108884 
L 312.499771 58.108884 
L 312.499771 57.915396 
L 313.679559 57.915396 
L 313.679559 57.721909 
L 313.836864 57.721909 
L 313.915517 57.334934 
L 315.095304 57.334934 
L 315.095304 57.141446 
L 315.567219 57.141446 
L 315.645872 56.754471 
L 319.578498 56.754471 
L 319.578498 56.560984 
L 320.994243 56.560984 
L 320.994243 56.367496 
L 321.387506 56.367496 
L 321.387506 56.174009 
L 323.432471 56.174009 
L 323.432471 55.980521 
L 323.825734 55.980521 
L 323.825734 55.787033 
L 324.376301 55.787033 
L 324.376301 55.593546 
L 325.792047 55.593546 
L 325.792047 55.400058 
L 327.44375 55.400058 
L 327.44375 55.206571 
L 330.039283 55.206571 
L 330.039283 55.013083 
L 330.196588 55.013083 
L 330.196588 54.819596 
L 331.612333 54.819596 
L 331.612333 54.626108 
L 332.241553 54.626108 
L 332.241553 54.432621 
L 332.556163 54.432621 
L 332.556163 54.239133 
L 332.713468 54.239133 
L 332.713468 54.045646 
L 333.185384 54.045646 
L 333.185384 53.852158 
L 334.443824 53.852158 
L 334.443824 53.658671 
L 334.758434 53.658671 
L 334.758434 53.465183 
L 336.724747 53.465183 
L 336.803399 52.691233 
L 337.196662 52.691233 
L 337.196662 52.497746 
L 338.06184 52.497746 
L 338.06184 52.304258 
L 339.63489 52.304258 
L 339.713543 51.917283 
L 339.792195 51.917283 
L 339.792195 51.723796 
L 340.185458 51.723796 
L 340.185458 51.530308 
L 341.443898 51.530308 
L 341.443898 51.336821 
L 341.915813 51.336821 
L 341.915813 51.143333 
L 342.545033 51.143333 
L 342.545033 50.949846 
L 342.702338 50.949846 
L 342.702338 50.756358 
L 344.511346 50.756358 
L 344.511346 50.562871 
L 344.747304 50.562871 
L 344.747304 50.369383 
L 345.061914 50.369383 
L 345.061914 49.982408 
L 346.320354 49.982408 
L 346.320354 49.788921 
L 348.129362 49.788921 
L 348.129362 49.595433 
L 352.297946 49.595433 
L 352.297946 49.401946 
L 354.814826 49.401946 
L 354.814826 49.208458 
L 356.230572 49.208458 
L 356.230572 49.014971 
L 356.859792 49.014971 
L 356.859792 48.821483 
L 357.567664 48.821483 
L 357.567664 48.627996 
L 357.803622 48.627996 
L 357.803622 48.434508 
L 359.61263 48.434508 
L 359.61263 48.241021 
L 362.208163 48.241021 
L 362.208163 48.047533 
L 362.994688 48.047533 
L 362.994688 47.854046 
L 364.803696 47.854046 
L 364.882349 47.467071 
L 368.500364 47.467071 
L 368.500364 47.273583 
L 369.444195 47.273583 
L 369.444195 47.080096 
L 370.623982 47.080096 
L 370.623982 46.886608 
L 371.80377 46.886608 
L 371.80377 46.693121 
L 371.961075 46.693121 
L 371.961075 46.499633 
L 372.826253 46.499633 
L 372.826253 46.306146 
L 375.264481 46.306146 
L 375.264481 45.919171 
L 377.073489 45.919171 
L 377.073489 45.725683 
L 377.702709 45.725683 
L 377.702709 45.532196 
L 380.140937 45.532196 
L 380.140937 45.338708 
L 381.871293 45.338708 
L 381.871293 45.145221 
L 382.264555 45.145221 
L 382.264555 44.951733 
L 384.938741 44.951733 
L 384.938741 44.758246 
L 385.803919 44.758246 
L 385.803919 44.564758 
L 386.433139 44.564758 
L 386.433139 44.371271 
L 386.905054 44.371271 
L 386.905054 44.177783 
L 387.062359 44.177783 
L 387.062359 43.984296 
L 388.950019 43.984296 
L 388.950019 43.790808 
L 390.20846 43.790808 
L 390.20846 43.597321 
L 390.83768 43.597321 
L 390.83768 43.403833 
L 393.433213 43.403833 
L 393.433213 43.210346 
L 395.163568 43.210346 
L 395.163568 43.016858 
L 398.388321 43.016858 
L 398.388321 42.823371 
L 404.129955 42.823371 
L 404.129955 42.629883 
L 410.422157 42.629883 
L 410.422157 42.436396 
L 412.231165 42.436396 
L 412.231165 42.242908 
L 413.489605 42.242908 
L 413.489605 42.049421 
L 415.21996 42.049421 
L 415.21996 41.855933 
L 427.017838 41.855933 
L 427.017838 41.662446 
L 429.456066 41.662446 
L 429.456066 41.468958 
L 438.107843 41.468958 
L 438.107843 41.27547 
L 438.973021 41.27547 
L 438.973021 41.081983 
L 439.680894 41.081983 
L 439.680894 40.888495 
L 445.894443 40.888495 
L 445.894443 40.695008 
L 452.343949 40.695008 
L 452.343949 40.50152 
L 460.287854 40.50152 
L 460.287854 40.308033 
L 466.658708 40.308033 
L 466.658708 40.114545 
L 472.950909 40.114545 
L 472.950909 40.114545 
" clip-path="url(#p0af77310d8)" style="fill: none; stroke: #1f77b4; stroke-width: 1.5; stroke-linecap: square"/>
   </g>
   <g id="line2d_14">
    <path d="M 67.969091 304.805455 
L 472.950909 40.114545 
" clip-path="url(#p0af77310d8)" style="fill: none; stroke-dasharray: 5.55,2.4; stroke-dashoffset: 0; stroke: #808080; stroke-width: 1.5"/>
   </g>
   <g id="patch_3">
    <path d="M 47.72 318.04 
L 47.72 26.88 
" style="fill: none; stroke: #000000; stroke-width: 0.8; stroke-linejoin: miter; stroke-linecap: square"/>
   </g>
   <g id="patch_4">
    <path d="M 493.2 318.04 
L 493.2 26.88 
" style="fill: none; stroke: #000000; stroke-width: 0.8; stroke-linejoin: miter; stroke-linecap: square"/>
   </g>
   <g id="patch_5">
    <path d="M 47.72 318.04 
L 493.2 318.04 
" style="fill: none; stroke: #000000; stroke-width: 0.8; stroke-linejoin: miter; stroke-linecap: square"/>
   </g>
   <g id="patch_6">
    <path d="M 47.72 26.88 
L 493.2 26.88 
" style="fill: none; stroke: #000000; stroke-width: 0.8; stroke-linejoin: miter; stroke-linecap: square"/>
   </g>
   <g id="text_15">
    <!-- Random Forest ROC Curve -->
    <g transform="translate(190.711562 20.88) scale(0.12 -0.12)">
     <defs>
      <path id="DejaVuSans-6e" d="M 3513 2113 
L 3513 0 
L 2938 0 
L 2938 2094 
Q 2938 2591 2744 2837 
Q 2550 3084 2163 3084 
Q 1697 3084 1428 2787 
Q 1159 2491 1159 1978 
L 1159 0 
L 581 0 
L 581 3500 
L 1159 3500 
L 1159 2956 
Q 1366 3272 1645 3428 
Q 1925 3584 2291 3584 
Q 2894 3584 3203 3211 
Q 3513 2838 3513 2113 
z
" transform="scale(0.015625)"/>
      <path id="DejaVuSans-64" d="M 2906 2969 
L 2906 4863 
L 3481 4863 
L 3481 0 
L 2906 0 
L 2906 525 
Q 2725 213 2448 61 
Q 2172 -91 1784 -91 
Q 1150 -91 751 415 
Q 353 922 353 1747 
Q 353 2572 751 3078 
Q 1150 3584 1784 3584 
Q 2172 3584 2448 3432 
Q 2725 3281 2906 2969 
z
M 947 1747 
Q 947 1113 1208 752 
Q 1469 391 1925 391 
Q 2381 391 2643 752 
Q 2906 1113 2906 1747 
Q 2906 2381 2643 2742 
Q 2381 3103 1925 3103 
Q 1469 3103 1208 2742 
Q 947 2381 947 1747 
z
" transform="scale(0.015625)"/>
      <path id="DejaVuSans-6d" d="M 3328 2828 
Q 3544 3216 3844 3400 
Q 4144 3584 4550 3584 
Q 5097 3584 5394 3201 
Q 5691 2819 5691 2113 
L 5691 0 
L 5113 0 
L 5113 2094 
Q 5113 2597 4934 2840 
Q 4756 3084 4391 3084 
Q 3944 3084 3684 2787 
Q 3425 2491 3425 1978 
L 3425 0 
L 2847 0 
L 2847 2094 
Q 2847 2600 2669 2842 
Q 2491 3084 2119 3084 
Q 1678 3084 1418 2786 
Q 1159 2488 1159 1978 
L 1159 0 
L 581 0 
L 581 3500 
L 1159 3500 
L 1159 2956 
Q 1356 3278 1631 3431 
Q 1906 3584 2284 3584 
Q 2666 3584 2933 3390 
Q 3200 3197 3328 2828 
z
" transform="scale(0.015625)"/>
      <path id="DejaVuSans-4f" d="M 2522 4238 
Q 1834 4238 1429 3725 
Q 1025 3213 1025 2328 
Q 1025 1447 1429 934 
Q 1834 422 2522 422 
Q 3209 422 3611 934 
Q 4013 1447 4013 2328 
Q 4013 3213 3611 3725 
Q 3209 4238 2522 4238 
z
M 2522 4750 
Q 3503 4750 4090 4092 
Q 4678 3434 4678 2328 
Q 4678 1225 4090 567 
Q 3503 -91 2522 -91 
Q 1538 -91 948 565 
Q 359 1222 359 2328 
Q 359 3434 948 4092 
Q 1538 4750 2522 4750 
z
" transform="scale(0.015625)"/>
      <path id="DejaVuSans-43" d="M 4122 4306 
L 4122 3641 
Q 3803 3938 3442 4084 
Q 3081 4231 2675 4231 
Q 1875 4231 1450 3742 
Q 1025 3253 1025 2328 
Q 1025 1406 1450 917 
Q 1875 428 2675 428 
Q 3081 428 3442 575 
Q 3803 722 4122 1019 
L 4122 359 
Q 3791 134 3420 21 
Q 3050 -91 2638 -91 
Q 1578 -91 968 557 
Q 359 1206 359 2328 
Q 359 3453 968 4101 
Q 1578 4750 2638 4750 
Q 3056 4750 3426 4639 
Q 3797 4528 4122 4306 
z
" transform="scale(0.015625)"/>
     </defs>
     <use xlink:href="#DejaVuSans-52"/>
     <use xlink:href="#DejaVuSans-61" transform="translate(67.232422 0)"/>
     <use xlink:href="#DejaVuSans-6e" transform="translate(128.511719 0)"/>
     <use xlink:href="#DejaVuSans-64" transform="translate(191.890625 0)"/>
     <use xlink:href="#DejaVuSans-6f" transform="translate(255.367188 0)"/>
     <use xlink:href="#DejaVuSans-6d" transform="translate(316.548828 0)"/>
     <use xlink:href="#DejaVuSans-20" transform="translate(413.960938 0)"/>
     <use xlink:href="#DejaVuSans-46" transform="translate(445.748047 0)"/>
     <use xlink:href="#DejaVuSans-6f" transform="translate(499.642578 0)"/>
     <use xlink:href="#DejaVuSans-72" transform="translate(560.824219 0)"/>
     <use xlink:href="#DejaVuSans-65" transform="translate(599.6875 0)"/>
     <use xlink:href="#DejaVuSans-73" transform="translate(661.210938 0)"/>
     <use xlink:href="#DejaVuSans-74" transform="translate(713.310547 0)"/>
     <use xlink:href="#DejaVuSans-20" transform="translate(752.519531 0)"/>
     <use xlink:href="#DejaVuSans-52" transform="translate(784.306641 0)"/>
     <use xlink:href="#DejaVuSans-4f" transform="translate(853.789062 0)"/>
     <use xlink:href="#DejaVuSans-43" transform="translate(932.5 0)"/>
     <use xlink:href="#DejaVuSans-20" transform="translate(1002.324219 0)"/>
     <use xlink:href="#DejaVuSans-43" transform="translate(1034.111328 0)"/>
     <use xlink:href="#DejaVuSans-75" transform="translate(1103.935547 0)"/>
     <use xlink:href="#DejaVuSans-72" transform="translate(1167.314453 0)"/>
     <use xlink:href="#DejaVuSans-76" transform="translate(1208.427734 0)"/>
     <use xlink:href="#DejaVuSans-65" transform="translate(1267.607422 0)"/>
    </g>
   </g>
   <g id="legend_1">
    <g id="patch_7">
     <path d="M 54.72 49.558125 
L 151.22625 49.558125 
Q 153.22625 49.558125 153.22625 47.558125 
L 153.22625 33.88 
Q 153.22625 31.88 151.22625 31.88 
L 54.72 31.88 
Q 52.72 31.88 52.72 33.88 
L 52.72 47.558125 
Q 52.72 49.558125 54.72 49.558125 
z
" style="fill: #ffffff; opacity: 0.8; stroke: #cccccc; stroke-linejoin: miter"/>
    </g>
    <g id="line2d_15">
     <path d="M 56.72 39.978438 
L 66.72 39.978438 
L 76.72 39.978438 
" style="fill: none; stroke: #1f77b4; stroke-width: 1.5; stroke-linecap: square"/>
    </g>
    <g id="text_16">
     <!-- AUC = 0.849 -->
     <g transform="translate(84.72 43.478438) scale(0.1 -0.1)">
      <defs>
       <path id="DejaVuSans-41" d="M 2188 4044 
L 1331 1722 
L 3047 1722 
L 2188 4044 
z
M 1831 4666 
L 2547 4666 
L 4325 0 
L 3669 0 
L 3244 1197 
L 1141 1197 
L 716 0 
L 50 0 
L 1831 4666 
z
" transform="scale(0.015625)"/>
       <path id="DejaVuSans-55" d="M 556 4666 
L 1191 4666 
L 1191 1831 
Q 1191 1081 1462 751 
Q 1734 422 2344 422 
Q 2950 422 3222 751 
Q 3494 1081 3494 1831 
L 3494 4666 
L 4128 4666 
L 4128 1753 
Q 4128 841 3676 375 
Q 3225 -91 2344 -91 
Q 1459 -91 1007 375 
Q 556 841 556 1753 
L 556 4666 
z
" transform="scale(0.015625)"/>
       <path id="DejaVuSans-3d" d="M 678 2906 
L 4684 2906 
L 4684 2381 
L 678 2381 
L 678 2906 
z
M 678 1631 
L 4684 1631 
L 4684 1100 
L 678 1100 
L 678 1631 
z
" transform="scale(0.015625)"/>
       <path id="DejaVuSans-39" d="M 703 97 
L 703 672 
Q 941 559 1184 500 
Q 1428 441 1663 441 
Q 2288 441 2617 861 
Q 2947 1281 2994 2138 
Q 2813 1869 2534 1725 
Q 2256 1581 1919 1581 
Q 1219 1581 811 2004 
Q 403 2428 403 3163 
Q 403 3881 828 4315 
Q 1253 4750 1959 4750 
Q 2769 4750 3195 4129 
Q 3622 3509 3622 2328 
Q 3622 1225 3098 567 
Q 2575 -91 1691 -91 
Q 1453 -91 1209 -44 
Q 966 3 703 97 
z
M 1959 2075 
Q 2384 2075 2632 2365 
Q 2881 2656 2881 3163 
Q 2881 3666 2632 3958 
Q 2384 4250 1959 4250 
Q 1534 4250 1286 3958 
Q 1038 3666 1038 3163 
Q 1038 2656 1286 2365 
Q 1534 2075 1959 2075 
z
" transform="scale(0.015625)"/>
      </defs>
      <use xlink:href="#DejaVuSans-41"/>
      <use xlink:href="#DejaVuSans-55" transform="translate(68.408203 0)"/>
      <use xlink:href="#DejaVuSans-43" transform="translate(141.601562 0)"/>
      <use xlink:href="#DejaVuSans-20" transform="translate(211.425781 0)"/>
      <use xlink:href="#DejaVuSans-3d" transform="translate(243.212891 0)"/>
      <use xlink:href="#DejaVuSans-20" transform="translate(327.001953 0)"/>
      <use xlink:href="#DejaVuSans-30" transform="translate(358.789062 0)"/>
      <use xlink:href="#DejaVuSans-2e" transform="translate(422.412109 0)"/>
      <use xlink:href="#DejaVuSans-38" transform="translate(454.199219 0)"/>
      <use xlink:href="#DejaVuSans-34" transform="translate(517.822266 0)"/>
      <use xlink:href="#DejaVuSans-39" transform="translate(581.445312 0)"/>
     </g>
    </g>
   </g>
  </g>
 </g>
 <defs>
  <clipPath id="p0af77310d8">
   <rect x="47.72" y="26.88" width="445.48" height="291.16"/>
  </clipPath>
 </defs>
</svg>
